<?xml version="1.0" encoding="UTF-8"?>
<svg id="krop" xmlns="http://www.w3.org/2000/svg" viewBox="0 0 203.74 204.78">
  <defs>
    <style>
      .cls-1 {
        fill: #ffb32a;
      }

      .cls-1, .cls-2, .cls-3, .cls-4, .cls-5 {
        stroke-width: 0px;
      }

      .cls-2 {
        fill: #ffe255;
      }

      .cls-3 {
        fill: #fff3bb;
      }

      .cls-4 {
        fill: #403915;
      }

      .cls-5 {
        fill: #f95;
      }
    </style>
  </defs>
  <g>
    <g>
      <path class="cls-2" d="M175.65,91.58c-2.66,23.88-23.31,38.23-30.22,43.03-34.55,24-75.8,16.23-88.65,7.08-2.06-1.47-4.1-3.42-4.1-3.42-6.75-6.46-16.09-20.13-11.97-30.21,1.05-2.57,3.71-6.66,16.75-11.29,5.4-1.92,9.91-2.98,13.95-3.58.73-.11.85-1.11.18-1.41-5.13-2.29-8.42-5.44-9.1-6.14-.73-.75-4.4-4.61-6.65-10.58-.14-.37.04-.79.4-.94l.77-.33.67-.28c.48-.2.9-.57,1.2-1.05.2-.31.35-.66.44-1.04l.1-.41c.08-.3.11-.61.11-.92h0c0-.86-.27-1.7-.78-2.32l-1.34-1.62c-.09-.11-.15-.24-.19-.38l-1.25-7.27c-.05-.26-.06-.53-.03-.79.05-.4,0-.62-.09-.73-.18-.2-.29-.45-.2-.7,3.69-10.9,13.6-20.7,27.17-20.7,15.88,0,28.75,13.13,28.75,29.33,0,10.91-5.84,20.43-14.51,25.48-.68.4-.34,1.47.44,1.37,3.15-.38,6.59-1,10.51-2.02,9.83-2.57,30.64-8,34.41-21.36,1.05-3.71.98-8.74,5.08-13.13,2.63-2.8,7.29-5.69,11.37-5.19,10.04,1.23,18.79,23.2,16.75,41.51Z"/>
      <path class="cls-2" d="M59.54,70.09h0c0,.31-.04.62-.11.92l-.1.41c-.1.39-.25.74-.44,1.04-.31.48-.72.85-1.2,1.05l-.67.28-.77.33-.65.27c-.62-1.78-1.11-3.74-1.35-5.86-.14-1.16-.2-2.37-.17-3.62.06-2.64.53-5.34,1.37-7.99.32-.09.61-.02.5.78-.03.26-.02.53.03.79l1.25,7.27c.03.14.1.27.19.38l1.34,1.62c.51.62.78,1.45.78,2.31Z"/>
      <g>
        <path class="cls-1" d="M59.54,70.09h0c0,.31-.04.62-.11.92l-.1.41c-.1.39-.25.74-.44,1.04-.31.48-.72.85-1.2,1.05l-.67.28-.77.33-.65.27-.5.21-.49.2c-.18.07-.36.12-.55.14-.27.03-.55.01-.82-.07l-5.96-1.69-4.1-1.16-3.35-.95c-.49-.14-.95-.36-1.38-.65,0,0-.02-.01-.03-.02h-.01c-.36-.25-.69-.55-.99-.89-.33-.36-.62-.77-.87-1.23l-.04-.07c-.46-.91-5.23-10.3-5.55-11.06,0-.03-.02-.04-.02-.05h0s23.85.04,23.85.04c.13,0,.4-.17.65-.23.32-.09.61-.02.5.78-.03.26-.02.53.03.79l1.25,7.27c.03.14.1.27.19.38l1.34,1.62c.51.62.78,1.45.78,2.31Z"/>
        <path class="cls-5" d="M59.54,70.09h0s-.19,1.19-.19,1.19c-.01.09-.03.18-.05.26l-.02.09c-.14.54-.43,1.02-.85,1.38l-.17.15c-.27.23-.57.41-.91.52l-.24.08c-.06.02-.12.04-.18.07l-.69.29-.65.27-.5.21-.49.2-.37.15h-.18s-.56-.06-.56-.06c-.17-.01-.34-.04-.5-.09l-2.01-.57-3.7-1.05-4.1-1.16-3.14-.89c-.14-.04-.27-.09-.4-.15l-1.19-.56h-.02s-.01-.02-.01-.02h-.01s-.76-.68-.76-.68c-.16-.14-.3-.29-.42-.46l-.69-.97-.04-.07-1.12-2.08-2.15-3.91-1.43-2.63c-.08-.15-.15-.3-.2-.46l-.65-1.98-.02-.05h0s10.38,7.47,10.38,7.47c.25.18.52.31.81.4l12.11,3.55,5.3,1.55Z"/>
      </g>
    </g>
    <ellipse class="cls-3" cx="73.34" cy="56.43" rx="5.44" ry="5.55"/>
    <ellipse class="cls-4" cx="71.11" cy="56.43" rx="2.33" ry="2.38"/>
    <ellipse class="cls-3" cx="69.76" cy="55.49" rx=".46" ry=".47"/>
  </g>
  <path class="cls-3" d="M73.42,141.85c.21-.7-11.68-8.87-17.8-18.18-4.86-7.4-2.85-10.57-4.04-11.45-1.53-1.14-7.56,2.12-1.45,11.18,6.76,10.03,23.06,19.26,23.3,18.46Z"/>
  <path class="cls-3" d="M93,99.52c2.77-1.8.71,10.31,16.24,6.92,12.33-2.7,27.5-13.37,27.5-12.27,0,1.41-25.1,21.54-39.85,24.5-16.32,3.28-7.1-17.06-3.9-19.14Z"/>
</svg>