<?xml version="1.0" encoding="UTF-8"?>
<svg id="Layer_1" data-name="Layer 1" xmlns="http://www.w3.org/2000/svg" viewBox="0 0 4077 2030">
  <defs>
    <style>
      .cls-1 {
        fill: #ef7150;
      }

      .cls-1, .cls-2 {
        stroke-width: 0px;
      }

      .cls-2 {
        fill: #0b48a0;
      }
    </style>
  </defs>
  <path class="cls-1" d="M1702,578c-65.68-31.04-60.15-54.89-130-88-31.9-15.12-81.64-38.7-144-33-42.12,3.85-71.41,19.57-130,51-38.21,20.5-68.2,40.89-111,70-51.16,34.79-68.85,50.17-107,65-30.14,11.71-54.28,15.79-74,19-21.35,3.48-90.58,13.3-233-10-85.42-13.98-81.96-21.02-111-18-91.77,9.55-151.19,82.51-163,97-48.79,59.9-58.18,122.49-65,168-8.29,55.3-16.92,112.82,14,167,21.24,37.22,51.49,54.15,112,88,68.73,38.45,138.05,77.24,227,74,62.18-2.27,78.11-23.04,126-9,52.18,15.29,86.28,55.48,102,74,45.06,53.09,32.17,76.67,70,112,31.71,29.62,66.25,36.84,134,51,37.78,7.9,97.43,19.83,172,9,58.34-8.47,57.05-20.89,149-46,80.71-22.04,123.43-33.71,181-28,75.5,7.49,131.11,40.36,148,51,49,30.88,47.53,48.22,112,93,37.34,25.94,67.31,40.59,107,60,65.23,31.9,97.84,47.84,139,51,44.66,3.42,81.35-6.57,102-14,49.9-17.95,63.84-41.65,135-102,71.36-60.52,107.04-90.78,153-107,53.67-18.94,58.88-2.12,153-18,97.06-16.37,101.12-35.87,182-47,83.03-11.42,150.45-.74,185,5,105.18,17.47,110.81,44.16,195,51,33.41,2.71,106.4,7.78,186-28,96.56-43.41,144.56-120.73,167-158,53.46-88.78,59.79-171.79,61-195,4.18-80.17-16.58-140.07-28-172-13.82-38.63-38.61-107.93-102-167-52.48-48.9-104.76-65.95-200-97-95.41-31.11-142.32-49.04-209-47-57.4,1.75-60.07,14.96-181,42-92.58,20.7-142.06,31.76-209,33-39.13.72-136.26,1.59-246-42-69.12-27.45-61.94-40.25-135-70-50.07-20.39-130.89-53.3-232-46-85.35,6.16-159.31,50.01-228,88-51.86,28.68-66.8,43.55-107,51-75.86,14.05-142.95-16.63-167-28Z"/>
  <path class="cls-2" d="M2250,612c-211.38,70.08-194.26,69.07-253,84-183.42,46.63-337.96,53.32-428,53-94.9-.34-165.6-8.89-307-26-163.78-19.81-245.67-29.72-306-42-84.02-17.1-121.18-29.58-185-22-33.16,3.94-109.39,14.05-180,74-22.8,19.36-77.72,71.68-100,159-19.93,78.1-2.83,141.41,5,169,4.07,14.35,25.32,85.73,90,153,40.63,42.26,104.05,88.77,232,122,182.46,47.38,228.05-1.87,428,21,152.26,17.41,134.78,47,386,101,58.76,12.63,166.97,27.93,381,58,359.94,50.58,398.89,52.15,459,31,116.47-40.98,105.58-94.49,265-169,136.04-63.58,257.34-77.6,317-84,236.71-25.4,309.23,45.57,476-21,65.59-26.18,117.86-62.49,153-117,14.9-23.11,55.58-86.2,37-153-18.6-66.9-86.06-99.49-143-127-91.58-44.25-119.19-22.04-217-63-61.67-25.83-60.74-38.86-169-106-35.45-21.99-127.25-78.54-227-122-92.31-40.22-178.12-77.61-285-84-50.58-3.03-98.24,1.35-429,111Z"/>
</svg>