<?xml version="1.0" encoding="UTF-8"?>
<svg id="krop" xmlns="http://www.w3.org/2000/svg" viewBox="0 0 230.95 223.86">
  <defs>
    <style>
      .cls-1 {
        fill: #7f4400;
      }

      .cls-1, .cls-2 {
        stroke-width: 0px;
      }

      .cls-2 {
        fill: #b28f66;
      }
    </style>
  </defs>
  <g>
    <path class="cls-1" d="M57.65,83.09c-2.18,17.2-8.73,21.61-10.23,30.18-.8,4.56,3.83,11.29,39.22,29.24,25.25,12.8,30.6,15.23,36.66,22.64,6.1,7.46-17.95,16.04-23.02,22.64-4.74,6.17,25.19,17.56,43.48,8.49,7.42-3.68,7.06-7.07,24.72-26.41,17.11-18.75,19.56-18.99,23.02-26.41,5.58-11.98-2.53-37.69-11.08-46.22-5.97-5.95-28.01-3.65-47.74,9.43-8.56,5.67-30.94-12.43-28.99-26.41,1.24-8.88,4.01-18.63-1.71-25.47-11.38-13.61-44.38-18.95-46.89-4.72-1.71,9.65,4.84,14.97,2.56,33.01Z"/>
    <path class="cls-1" d="M58.75,143.73c2.39-1.07,4.54.83,10.21,8.4,9.77,13.04,14.64,19.68,14.29,25.95-.35,6.21-4.13,11.86-6.12,10.69-2.57-1.5-.47-13.28-4.49-19.85-2.16-3.52-3.58-1.48-10.61-5.34-4.99-2.74-8.13-4.47-8.57-8.4-.48-4.24,2.27-10.09,5.31-11.45Z"/>
  </g>
  <path class="cls-2" d="M70.24,52.38c-2.64-.94-6.19.56-7.42,3.38-1.74,4,2.56,7.53,3.99,16.23,1.2,7.28-.41,13.35-1.71,18.26-3.26,12.32-9.37,17.97-8.56,18.94,1.02,1.21,12.16-5.6,17.68-18.94,0,0,5.78-13.98,1.14-29.76-1.97-6.71-4.29-7.82-5.13-8.12Z"/>
  <path class="cls-2" d="M133.3,171.35c.71.52.64,3.49,0,5.74,0,0-.03.12-.07.23-1.14,3.65-17.93,13.62-19.67,11.25-1.98-2.7,17.48-18.85,19.73-17.22Z"/>
</svg>