<?xml version="1.0" encoding="UTF-8"?>
<svg id="Layer_1" data-name="Layer 1" xmlns="http://www.w3.org/2000/svg" viewBox="0 0 1666 488">
  <defs>
    <style>
      .cls-1 {
        letter-spacing: -.04em;
      }

      .cls-2 {
        fill: #f2541d;
      }

      .cls-2, .cls-3 {
        stroke-width: 0px;
      }

      .cls-4 {
        fill: #000;
        font-family: Phosphate-Inline, Phosphate;
        font-size: 110px;
      }

      .cls-5 {
        letter-spacing: .02em;
      }

      .cls-6 {
        letter-spacing: 0em;
      }

      .cls-3 {
        fill: #0d56d6;
      }
    </style>
  </defs>
  <g>
    <path class="cls-3" d="M102,237.49c-1.84-1.07-3.11-1.81-5-2-3.26-.33-5.76,1.23-7,2-.81.51-4.24,2.64-5,6-.17.76-.42,1.83,0,3,.39,1.1,1,1.25,1,2,0,1.45-2.25,2.24-2,3,.16.51,1.16.18,2,1,.74.73.33,1.35,1,2,.88.86,1.97.17,3,1,.72.58.54,1.21,1,2,1.08,1.88,4.48,2.55,7,2,1.32-.29,1.36-.68,6-3,.2-.1,2-1,2-1h0l2-2h0s2.3-6.58,0-11c-1.13-2.17-3.13-3.33-6-5Z"/>
    <path class="cls-3" d="M128,244.49c3.71-3.57,13-.63,13,1,0,1.02-3.62,1.73-5,2-3.57.7-8.53.61-9-1-.24-.81.74-1.75,1-2Z"/>
    <path class="cls-3" d="M133,228.49c-.46-.38-2.11.64-2,1,.16.51,3.84-.51,4,0,.11.36-1.54,1.38-2,1-.42-.35.42-1.65,0-2Z"/>
    <path class="cls-3" d="M134,217.49c.92-.59,1.92-.87,3-1,.99-.12,1.11,0,3,0,2.03,0,2.98-.14,3,0,.02.15-1.07.29-3,1-1.67.61-1.96.9-3,1-.7.07-.69-.06-2,0-1.3.06-1.92.2-2,0-.11-.28.87-.92,1-1Z"/>
    <path class="cls-3" d="M119,283.49c.14-.81-.94-1.79-2-2-.41-.08-.74-.04-1,0-.54.08-1.53.22-2,1-.35.58-.4,1.44,0,2,.77,1.09,2.87.63,4,0,.41-.23.91-.51,1-1Z"/>
    <path class="cls-3" d="M117,285.49c-.38.21-.92.5-1,1-.14.84,1.08,1.69,2,2,.43.15,1.24.42,2,0,.68-.38,1.22-1.25,1-2-.16-.54-.65-.81-1-1-.92-.5-2.08-.5-3,0Z"/>
    <path class="cls-3" d="M108,308.49c-2.46-.53-4.55,1.56-5,2-.44.44-2.51,2.5-2,5,.4,1.97,2.14,2.95,4,4,1.29.73,2.64,1.49,4,1,1.02-.37,1.56-1.26,2-2,.29-.49,1.12-2,1-4-.12-2.07-1.29-5.41-4-6Z"/>
    <path class="cls-3" d="M112,325.49c-2.62-1.04-4.94,1.08-9,3-8.13,3.85-13.71,2.42-15,6-.11.3-.47,1.29,0,2,1.2,1.81,6.81.25,10-1,5.87-2.31,5.59-4.42,11-6,2.48-.73,4.86-.96,5-2,.1-.76-1.03-1.62-2-2Z"/>
    <path class="cls-3" d="M152,326.49c-.18-.09-1.12-.5-2,0-.7.4-1.26,1.3-1,2,.25.67,1.12.83,2,1,.6.11.88.04,1,0,.43-.14.83-.5,1-1,.04-.12.16-.53,0-1-.22-.62-.78-.89-1-1Z"/>
    <path class="cls-3" d="M98,407.49c1.18-1.55.47-2.56,2-4,1.79-1.69,5.24-2.66,8-1,1.64.99,3.11,2.95,3,5-.02.44-.14,1.2-3,5-2.36,3.13-3.21,3.84-3,5,.25,1.43,2,3,2,3h0s0,1.99,0,4c0,2,0,1.99,0,2-.22,1.98-1.84,3.09-4,5-4.75,4.2-4.89,5.92-7,6-1.7.06-1.83-1.04-4-1-2.61.05-3.72,1.67-5,1-1.09-.57-.59-1.9-2-3-1.15-.89-1.73-.21-3-1-.74-.46-.98-.98-3-5-1-1.99-.99-1.97-1-2-.62-1.94-.08-3.1,0-7,.04-1.77-.08-1.5,0-2,.52-3.39,4.15-5.5,5-6,6.58-3.83,12.2-.33,15-4Z"/>
    <path class="cls-3" d="M124,424.49c-2.17.12-3.48,2.19-4,3-.42.67-2.01,3.16-1,5,.65,1.17,2.1,1.45,5,2,2.67.51,4.01.76,5,0,1.47-1.13,1.4-3.58,1-5-.43-1.52-1.4-2.43-2-3-.9-.85-2.23-2.1-4-2Z"/>
    <path class="cls-3" d="M100,461.49c-.49-.83-2.59-.68-4,0-2.36,1.14-3.7,4.22-3,5,.66.74,3.12-.54,4-1,.92-.48,2.56-1.36,3-3,.09-.33.18-.69,0-1Z"/>
    <path class="cls-3" d="M60,420.49c-.99.02-1.65.66-2,1-.42.41-1.25,1.22-1,2,.24.76,1.33,1.01,2,1,.99-.02,1.65-.66,2-1,.42-.41,1.25-1.22,1-2-.24-.76-1.33-1.01-2-1Z"/>
    <path class="cls-3" d="M132,387.49c-.08-.58-.81-5.21-5-8-3.49-2.33-9.24-3.29-13,0-3.61,3.15-3.1,8.18-3,9,.06.54.75,5.63,5,8,2.27,1.27,4.47,1.14,7,1,2.91-.16,5.21-.29,7-2,2.76-2.63,2.15-6.95,2-8Z"/>
    <path class="cls-3" d="M155,381.49c-1.1.58-1.85-.85-5-1-1.29-.06-1.54.17-3,0-1.05-.12-1.52-.3-2,0-.75.47-.36,1.41-1,2-.97.88-2.5-.65-4,0-1.73.75-.77,3.27-3,5-1.01.78-1.81.73-3,2-.38.4-1.27,1.35-1,2,.27.65,1.38.28,2,1,.92,1.08.04,3.82-1,4-.7.12-1.01-.99-2-1-1.1,0-2.24,1.36-2,2,.28.75,2.27-.02,3,1,.79,1.1-.85,2.91,0,4,.58.74,1.66.32,2,1,.47.95-1.38,2.36-1,3,.51.87,4.29-.99,5,0,.62.86-1.69,2.98-1,4,.6.89,2.7-.24,4,1,.78.74.31,1.42,1,2,1.48,1.25,4.47-1.24,6,0,.82.67.3,1.66,1,2,1.25.61,3.85-2.1,7-3,.16-.05.85-.24,1,0,.25.39-1.26,1.56-1,2,.17.3.92-.15,2,0,1.45.19,2.39,1.3,3,2,.6.7,1.21,1.41,1,2-.19.54-.87.42-2,1-1.29.66-1.99,1.62-3,3-.7.96-1.05,1.45-1,2,.09.94,1.06,1.75,2,2,.55.15,1.02.09,4-1,1.74-.64,2.12-.82,3-1,1.45-.3,2.5-.52,3,0,.87.91-.85,3.15,0,4,.32.32.63.07,3,0,1.44-.04,1.38.05,3,0,1.62-.05,1.67-.14,2,0,.64.28.91.82,2,3,1.01,2.02.98,1.95,1,2,2.17,4.77,2.45,6.02,3,6,.87-.03.57-3.11,3-5,.35-.27,1.56-1.21,3-1,.88.13,1.55.65,2,1,1.37,1.07,1.23,1.86,2,2,.87.16,1.25-.82,3-1,.38-.04.66-.07,1,0,1.89.38,2.66,3.12,3,3,.27-.1-.41-1.79,0-4,.12-.68.33-1.78,1-2,.34-.11.71.05,2,1,2.1,1.55,2.35,2.03,3,2,.92-.04,1.88-1.04,2-2,.12-.99-.7-1.35-1-3-.09-.48-.22-1.22,0-2,.54-1.94,3.04-3.37,5-3,.62.12,1.08.41,2,1,1.72,1.1,2.01,1.93,3,2,.75.05,1.82-.34,2-1,.47-1.73-5.53-4.17-5-6,.1-.33.27-.17,1-1,1-1.13.99-1.8,2-3,.41-.48.77-.8,1-1,1.59-1.39,2.31-1.12,3-2,.94-1.19.14-2.32,1-3,.73-.57,1.44.12,3,0,2.12-.16,3.62-1.64,5-3,1.3-1.29,2.02-1.99,2-3-.03-1.25-1.17-1.73-1-3,.13-.95.8-.98,1-2,.29-1.52-.93-2.92-1-3-1.02-1.13-1.83-.67-3-2-.84-.95-.97-1.81-1-2-.08-.59.08-.7,0-1-.31-1.19-3.1-.73-6-2-2.26-.99-4.31-2.89-4-4,.05-.19.14-.24,1-1,1.98-1.74,2.02-1.89,2-2-.14-.89-4.08-.19-5-2-.29-.56-.3-1.39,0-2,.28-.58.78-.86,1-1,2.07-1.28,1.72-3.22,4-5,1.63-1.27,2.76-1.02,3-2,.22-.92-.74-1.28-1-3-.23-1.48.38-1.94,0-3-.32-.91-.99-1.21-2-2-3.09-2.42-2.81-4.29-5-5-.54-.18-1.36-.12-3,0-3.22.23-4.83.35-6,1-3.08,1.71-2.27,5.15-5,6-1.36.42-1.65-.41-4,0-2.24.39-2.68,1.26-4,1-1.42-.28-2.61-1.65-3-3-.69-2.42,1.15-4.92,1-5-.2-.1-1.75,5.3-5,6-1.85.4-4.24-.71-7-2-1.68-.78-2.5-1.36-3-1-1.11.81,1.32,4.97,0,6-.27.21-.85.14-2,0-2.37-.29-3.56-.44-4-1-1.1-1.4,1.06-3.81,0-5-.67-.75-2.37-.74-3,0-.53.62-.01,1.43,2,7,.19.53.44,1.22,1,2,1.03,1.43,2.1,1.73,2,2-.19.52-4.54.39-6-2-.51-.84-.33-1.42-1-2-1.04-.91-3.14-.95-4,0-1.28,1.4-.22,5.35,2,7,.49.36.98.57,1,1,.04.91-2.04,2.21-4,2-1.64-.18-2.15-1.31-3-1-1.3.47-.56,3.24-2,4Z"/>
    <path class="cls-3" d="M158,349.49c-1.92-2.37-10.58.03-11,3-.2,1.45,1.59,2.71,2,3,2.34,1.65,6.05,1.38,8-1,1.09-1.33,2-3.76,1-5Z"/>
    <path class="cls-3" d="M154,344.49c1.4-.48,3.96-1.12,6,0,.29.16,1.06.58,1,1-.02.12-.13.51-3,1-2.35.4-3.53.59-4,0-.12-.16-.47-.69,0-2Z"/>
    <path class="cls-3" d="M187,327.49c-.4-.25-2.56-1.61-5-1-2.14.54-3.27,2.3-5,5-1.64,2.56-1.13,2.73-3,6-2.01,3.51-3.09,4.16-3,6,.1,2.1,1.61,3.61,2,4,1.47,1.47,3.19,1.88,4,2,2.34.36,4.15-.55,5-1,3.26-1.7,4.59-4.86,5-6,.94-2.65-.07-3.02,1-6,1-2.79,2.18-3.28,2-5-.23-2.26-2.49-3.68-3-4Z"/>
    <path class="cls-3" d="M195,346.49c-.61-.44-1.45-.31-2,0-.67.38-1.23,1.23-1,2,.18.6.76.88,1,1,.11.06,1.22.57,2,0,.88-.64.92-2.33,0-3Z"/>
    <path class="cls-3" d="M181,354.49c-1.65.22-2.47.33-3,1-.67.86-.71,2.36,0,3,.42.38,1.29.26,3,0,.59-.09,1.99-.32,4-1,1.89-.64,1.98-.88,2-1,.11-.71-1.57-1.66-3-2-1.07-.25-1.93-.14-3,0Z"/>
    <path class="cls-3" d="M188,356.49c-.23-.73.55-1.54,1-2,2.09-2.13,3.73-1.33,6-3,2.37-1.74,2.78-4.21,4-4,.49.09.88.56,1,1,.29,1.11-1.08,2.33-3,4-2.09,1.82-2.09,1.31-4,3-1.36,1.21-1.92,1.96-3,2-.79.03-1.79-.33-2-1Z"/>
    <path class="cls-3" d="M184,267.49c-1.03.09-2.37.69-3,2-.04.09-.72,1.55,0,3,.99,2,3.66,2,4,2,1.39,0,3.55-.59,4-2,.63-1.99-2.26-5.24-5-5Z"/>
    <path class="cls-3" d="M180,288.49c-.97-.19-2.24,1.19-2,2,.19.65,1.3.86,2,1,.54.1.81.16,1,0,.57-.49.12-2.78-1-3Z"/>
    <path class="cls-3" d="M187,295.49c-1.06.11-2.22,1.11-2,2,.18.75,1.32,1.25,2,1,.33-.12.33-.34,1-1,.71-.7,1-.74,1-1,0-.49-1.04-1.1-2-1Z"/>
    <path class="cls-3" d="M181,299.49c-.98,0-2.39-.01-3,1-.35.58-.39,1.44,0,2,.76,1.09,2.97.86,4,0,.27-.22.33-.39,1-1,.77-.71,1.01-.79,1-1-.03-.53-1.62-.99-3-1Z"/>
    <path class="cls-3" d="M137,413.49c-2.03-.6-4.73-.06-6,2-1.37,2.23-.13,4.74,0,5,1.03,2,3.45,3.56,6,3,1.91-.42,3.62-1.97,4-4,.5-2.72-1.56-5.28-4-6Z"/>
    <path class="cls-3" d="M146,439.49c2.04-1.12,6.45,2.45,6,4-.22.75-1.56.94-2,1-2.22.31-4.9-1.16-5-3-.04-.71.29-1.61,1-2Z"/>
    <path class="cls-3" d="M240,453.49c-1.82-.63-5.7,3.85-5,5,.61,1,5.28.56,6-2,.31-1.1-.09-2.69-1-3Z"/>
    <path class="cls-3" d="M281,444.49c-1.15.03-1.87,2.55-2,3-.23.79-.7,2.44,0,3,.83.68,3.39-.17,4-2,.61-1.82-.91-4.03-2-4Z"/>
    <path class="cls-3" d="M284,471.49c-1.61.45-2.57,2.39-2,4,.45,1.27,1.81,2.18,3,2,1.92-.29,3.17-3.35,2-5-.62-.88-1.9-1.31-3-1Z"/>
    <path class="cls-3" d="M234,403.49c-1.06,1.16.16,2.74-1,6-.38,1.06-.56,1.59-1,2-2.13,2.01-5.95-.84-8,1-1.07.96-.33,2-2,4-.65.78-.89.78-2,2-1.35,1.49-2.03,2.24-2,3,.05,1.33,1.71,2.55,3,3,1.04.37,1.83.23,3,1,.49.33.85.56,1,1,.29.83-.51,1.32-1,3-.23.79-.61,2.08,0,3,.42.63.98.6,1,1,.06.94-3,2-3,2h0s-.45,1.47,0,2c.46.54,1.83.06,2,0,3.72-1.33,3.49-6.99,7-8,.36-.1,1.18-.34,2,0,1.73.71,1.29,3.02,3,4,1.26.72,2.93.28,4,0,1.59-.42,1.82-1.01,3-1,1.42.02,1.74.88,3,1,.51.05,1.43,0,4-2,2.32-1.81,3.74-2.92,5-5,1.2-1.99,1.54-3.67,2-6,.64-3.23,1.19-5.99,0-9-.48-1.21-1.21-3.06-3-4-.85-.45-1.73-.58-7,0-4.21.46-5.12.7-6,0-1.37-1.1-.53-2.8-2-4-1.36-1.11-3.94-1.15-5,0Z"/>
    <path class="cls-3" d="M248,388.49c-1.11.49-2.06,1.65-2,3,.07,1.67,1.63,2.79,3,3,.2.03,1.93.27,3-1,.94-1.12.89-2.84,0-4-.95-1.24-2.66-1.59-4-1Z"/>
    <path class="cls-3" d="M256,400.49c-1-.56-2.44-.11-3,1s0,2.59,1,3c1.23.51,2.86-.65,3-2,.08-.74-.28-1.6-1-2Z"/>
    <path class="cls-3" d="M264,374.49c-.13.16-.09.12-2,3-1.31,1.98-1.97,2.97-2,3-3.03,2.98-11.19-1.5-12,0-.26.49.35,1.44,1,2,2.62,2.26,6.64-1.15,10,1,.87.56,2.11,1.75,2,3-.15,1.8-2.98,2.32-3,4-.01,1.52,2.27,2.45,2,3-.35.74-4.4-.99-5,0-.28.47.22,1.5,1,2,1.69,1.09,3.75-.97,5,0,1.01.79.99,3.17,0,4-.24.2-.51.29-.62.32-1.18.38-2.31-.44-2.38-.32-.11.19,3.21,1.82,3,3-.15.87-2.07.67-3,2-.57.82,0,1.89,0,4v2c0,4.78,1,7,1,7,.93,2.08,2.66,3.16,4,4,4.14,2.59,6.84,1.19,10,4,1.61,1.43,1.93,2.71,2,3,.35,1.52-.39,2,0,3,.61,1.59,2.76,1.17,6,3,2.26,1.28,1.78,1.8,4,3,2.38,1.28,2.9.67,6,2,1.67.72,3.34,1.44,5,3,1.69,1.59,1.63,2.43,3,3,1.74.73,4.28.41,5-1,.44-.87.05-1.87,0-2-.86-2.1-3.92-2.05-4-3-.08-.87,2.45-1.53,6-3,5.32-2.2,10-5,10-5,0,0,1.72.91,3,1,1.31.09,2.29-.67,4-2,1.74-1.36,3.11-2.96,4-4,1.06-1.24,1.27-1.64,2-2,1.87-.93,3.91-.04,4,0,2.19.99,2.82,3.35,3,4,.19.69.12.88,0,5-.1,3.28-.07,3.6,0,4,.33,2,.93,2.24,1,4,.07,1.74-.45,2.71,0,3,.44.28,1.42-.32,2-1,.42-.49.86-1.29,1-4,.08-1.56.01-2.74,0-3-.32-5.83.83-6.04,0-8-.79-1.87-2.27-2.72-3-5-.13-.39-.35-1.2,0-2,.19-.43.62-1.06,1-1,.53.08.32,1.4,1,3,.85,2,1.95,1.82,3,4,.69,1.45.29,1.7,1,3,.86,1.57,2.11,2.41,3,3,1.2.8,3.38,2.26,6,2,2.18-.21,2.98-1.44,5-1,.52.11,1.36.3,2,1,.94,1.04.49,2.19,1,5,.22,1.25.67,3.02,1,3,.59-.04-.35-5.79,2-7,.52-.27,1.68-.18,4,0,2.14.17,2.66.37,3,0,.69-.74-.75-2.24-1-5-.19-2.09.29-5.2,2-6,1.52-.71,3.1.84,4,0,.65-.6.51-2.03,0-3-1.08-2.06-3.63-1.62-4-3-.35-1.31,1.87-1.98,3-5,.84-2.24.32-3.77,1-4,1.16-.38,2.63,4.06,5,4,1.77-.04,1.97-2.54,4-3,3.02-.68,4.84,4.35,8,4,3.38-.38,5.18-6.56,7-6,.88.27.91,1.85,2,2,.73.1,1.07-.55,2-1,2.25-1.1,4.69.53,5,0,.41-.71-4.35-3.11-4-5,.49-2.64,10.6-2.26,11-5,.15-1.07-1.28-1.76-2-5-.2-.91-.22-1.46,0-2,.62-1.53,2.73-1.95,3-2,1.71-.32,2.65.43,3,0,.68-.83-2.68-3.7-2-5,.87-1.68,7.9.4,8,0,.11-.43-8.17-2.58-8-4,.13-1.07,4.98-1.16,5-2,.02-.85-5.01-.59-6-3-.53-1.29.67-1.93,2-7,.43-1.63.46-2.15,1-3,.96-1.49,2.09-1.79,4-3,2.41-1.53,4.84-3.07,5-5,.2-2.45-3.36-4.53-3-5,.34-.44,3.34,1.68,4,1,.55-.56-1.37-2.18-1-4,.52-2.58,4.94-2.2,6-5,1.04-2.74-2.23-5.64-1-7,.64-.71,2.2-.67,3,0,1.31,1.1.13,3.54,1,4,.96.51,3.96-1.64,4-4,.04-2.13-2.35-3.53-2-4,.33-.44,2.22,1,6,2,1.53.41,2.11.41,4,1,1.18.37,3,1.01,3,1,0-.02-4.44-.76-5-3-.23-.93.36-1.49,0-3-.18-.77-.38-1.6-1-2-1.61-1.03-4.3,2-6,1-.73-.43-.9-1.39-1-2-.4-2.36,1.29-4.73,3-6,1.99-1.48,4.04-1.52,4-2-.06-.6-3.18-.05-5-2-.67-.71-1.4-2.01-1-3,.66-1.63,3.99-1.43,4-2,.02-.74-5.57-.26-7-3-.49-.94-.1-1.5-1-5-.33-1.3-.55-1.87-1-2-1-.29-1.79,2.04-3,2-2.22-.07-3.1-8.02-5-8-.81,0-.79,1.46-2,2-2.48,1.1-4.9-3.97-9-4-4.08-.03-6.06,4.98-9,4-1.56-.52-1.15-1.98-3-3-3.02-1.67-5.64,1.37-9,0-2.72-1.1-3.73-4.19-4-5-1.15-3.5-.25-8.07,2-9,1.58-.65,3,.83,4,0,.97-.81.48-2.91,0-5-.92-3.96-2.16-4.6-2-7,.15-2.28,1.4-3.71,1-4-.65-.48-3.71,3.63-5,3-1.55-.75,1.34-7.38-1-9-1.48-1.03-5,0-5,0,0,0-3.14-1.71-3-3,.1-.87,1.61-.71,3-2,1.71-1.58,1.87-4.09,2-6,.24-3.61-.88-5.42,0-6,.59-.39,1.35.27,5,1,1.25.25,1.7.28,2,0,.79-.73-.63-2.49,0-4,.63-1.52,3.17-2.39,5-2,4.51.96,7.92,10.26,5,15-1.94,3.15-6.19,3.52-6,5,.22,1.73,5.97,1.23,7,4,.95,2.57-2.96,5.85-2,7,.79.95,3.59-1.15,5,0,1.54,1.25-.81,4.51,1,7,1.12,1.54,3.37,2.16,5,2,.33-.03,1.22-.36,3-1,2.92-1.06,3.5-1.33,4-1,.98.65.28,2.73,1,3,.71.26,1.43-1.78,3-2,1.5-.21,3.29,1.32,4,3,.92,2.17-.56,3.19,0,6,.45,2.27,2.08,4.94,4,5,1.2.04,2.39-.94,3-2,1.86-3.2-1.71-6.84,0-9,1.05-1.33,3.34-1.14,5-1,.68.06,4.85.41,6,3,.14.31.24.68,0,4-.28,3.83-.51,4.48,0,5,.97.98,3.73.56,5-1,1.58-1.94.37-5.06,0-6-1.9-4.88-6.35-5.69-6-8,.26-1.69,2.89-3.02,5-3,2.23.02,2.68,1.55,5,2,3.46.67,6.65-1.91,8-3,1.14-.92,4.69-3.79,5-8,.34-4.68-3.68-6.01-3-10,.67-3.93,4.86-4.35,5-8,.11-3.06-2.8-3.58-3-7-.22-3.69,2.93-7.34,6-9,2.95-1.59,3.99-.36,7-2,.23-.12,5.28-2.96,6-8,.18-1.28.14-3.06-3-9-3.4-6.43-5.1-9.65-7-11-5.43-3.87-12.26-2.16-18-5-.35-.17-4-2-4-2-5.67,1.4-6,1-6,1-1.01-1.22,4.55-5.14,6-12,1.09-5.15-.39-10.8-2-11-3.17-.39-6.33,20.35-10,20-1.78-.17-3.64-5.31-2-8,1.13-1.85,3.14-1.3,4-3,1.43-2.83-3.18-6.19-2-9,1.26-2.99,7.68-2.1,8-4,.34-2.01-6.73-3.44-7-7-.23-3.03,4.67-4.87,4-7-.63-2.02-5.24-.97-7-4-.87-1.5-.81-3.58,0-5,1.26-2.2,4.06-2.3,4-3-.11-1.25-9.06-.34-10-3-.76-2.14,4.47-4.33,4-7-.77-4.4-15.84-3.7-17-9-.53-2.41,2.11-4.7,1-6-.67-.78-1.85-.23-5,0-5.64.41-6.39-1.02-10,0-2.26.64-2.88,1.46-4,1-1.29-.53-1.33-1.97-3-5-1.43-2.6-2.15-3.9-3-4-3.05-.37-5.91,12.34-9,12-1.86-.2-2.1-4.92-4-5-1.56-.07-2.08,3.09-6,7-1.76,1.76-3.35,3.3-5,3-2.32-.43-2.88-4.16-4-4-1.69.24-.74,8.76-4,10-1.44.55-2.48-.8-4,0-1.52.8-2.33,3.11-2,5,.49,2.83,3.32,3.57,3,5-.31,1.38-3.33,2.25-6,2-5.16-.48-8.88-5.13-9-5-.11.12,4.42,2.85,5,7,.36,2.55-.78,5.68-3,7-2.09,1.24-3.34-.2-8,0-5.39.23-7.53,2.31-9,1-1.9-1.7.24-6.47-1-7-1.07-.46-2.56,3.13-5,3-2.23-.12-3.04-3.24-5-3-1.43.17-1.6,1.91-3,2-1.52.1-2.02-1.91-4-3-2.35-1.3-6.04-.89-8,1-2.72,2.62-1.9,7.85,0,11,2.56,4.24,7.35,5.13,7,7-.29,1.54-3.64,1.33-4,3-.35,1.63,2.71,2.43,6,7,.41.57,1.28,2.05,3,5,1.79,3.06,1.95,3.48,2,4,.27,2.71-2.68,4.42-5,7-6.18,6.88-3.19,14.74-7,16-2.77.91-7.04-2.36-9-6-3.48-6.47.9-12.98-2-15-1.98-1.38-4.15,1.55-11,2-5.62.37-7.15-1.41-9,0-3.81,2.9.35,12.22-3,14-.83.44-2.56-.04-6-1-2.81-.78-4.21-1.18-5-2-2.75-2.87-.37-8.81-1-9-.94-.28-5.42,13.35-7,13-1.04-.23,1.15-6.12-2-12-.48-.89-1.98-2.93-5-7-.85-1.15-2.15-2.91-3-4-5.4-6.96-9.39-12.11-15-13-4.23-.67-6.97,1.45-8,0-1.25-1.77,2.76-4.96,2-10-.39-2.59-1.96-5.13-3-5-2.17.28-.29,11.92-5,14-2.89,1.27-6.69-1.75-7-2-4.68-3.81-4.71-11.05-5-11-.42.07,2.19,14.25,0,15-1.96.68-6.82-9.81-9-9-1.42.53.28,5.09-2,7-3.19,2.67-10.92-2.57-12-1-1,1.44,4.97,6.66,4,8-.96,1.32-7.4-2.77-9-1-1.38,1.53,2.04,6.17,1,7-1.08.86-5.77-3.27-6-3-.25.3,5.93,4.91,5,7-.25.56-.91.73-2,1-3.76.93-5.59-.6-9,0-1.49.26-3.98,1.05-4,2-.03,1.59,6.88,1.29,10,6,1.04,1.57,1.9,4.05,1,5-1.99,2.09-12-4-12-4s12.1,4.21,12,9c-.03,1.58-1.41,3.43-3,4-2.34.84-4.51-1.33-7,0-.14.07-1.08.58-1,1,.19,1.01,5.95.52,6,1,.05.5-6.04,1.37-6,2,.05.71,7.67.32,8,2,.2.99-2.27,1.95-2,3,.29,1.14,3.36.61,4,2,.75,1.62-2.57,4.23-2,5,.59.8,4.05-2.18,7-1,1.9.76,3.23,3.09,3,5-.15,1.26-.93,1.87-3,4-2.14,2.2-5.29,5.64-5,6,.35.43,4.76-4.61,10-4,.19.02,3.97.51,5,3,.72,1.75-.26,3.69-3,8-3.93,6.18-7.32,10.71-7,11,.49.44,7.95-10.24,15-9,1.41.25,1.74.79,6,2,3.7,1.05,6,1.38,6,2,0,.68-2.73.7-6,3-1.17.83-1.76,1.25-2,2-.59,1.85,1.58,2.9,2,6,.11.83.28,3.12-1,5-1.24,1.82-2.84,1.81-3,3-.23,1.68,2.83,2.41,3,4,.4,3.7-15.32,6.91-15,10,.18,1.77,5.65,3.73,10,4,1.6.1,3.19-.03,5,1,1.73.98,3.44,2.89,3,4-.53,1.34-3.63.04-6,2-1.6,1.32-2.68,3.96-2,6,1.11,3.32,6.2,2.98,7,6,.45,1.72-.65,3.85-2,5-5.65,4.83-18.69-4.88-22-1-1.03,1.21-.96,3.57,0,5,2.97,4.42,13.4-1.58,23,4,2.51,1.46,4.32,3.33,4,4-.36.76-3.25-.55-5,1-.83.74-1.47,2.18-1,3,1.12,1.95,7.33-1.59,10,1,1.57,1.52,1.26,4.52,1,7-.38,3.69-1.75,4.7-1,7,.61,1.86,1.81,2.15,2,4,.23,2.22-1.3,3.75-1,4,.7.59,7.26-9.2,12-8,2.22.56,3.92,3.51,4,6,.14,4.42-4.87,6.45-4,10,.37,1.5,1.71,2.98,3,3,2.25.04,2.38-4.39,6-6,2.57-1.14,5.9-.42,8,1,2.37,1.61,2.14,3.43,4,4,2,.62,3.36-1.16,7-3,1.98-1,8.22-4.16,13-2,2.35,1.06,4.45,3.46,4,5-.63,2.13-5.98,1.92-6,3-.02.88,3.51,1.2,8,4,3.01,1.88,3.03,2.74,3,3-.13,1.36-2.69,1.23-5,4Z"/>
    <path class="cls-3" d="M313,453.49c-3.61.51-5.57,3.34-6,4-2.23,3.44-2.32,8.78,1,12,2.19,2.13,5.85,3.31,9,2,3.54-1.47,4.55-5.3,5-7,.39-1.47.97-3.66,0-6-1.36-3.29-5.24-5.53-9-5Z"/>
    <path class="cls-3" d="M373,442.49c-1.79,2.51.68,6.48,1,7,.45.72,2.8,4.51,6,4,2.8-.45,3.94-3.83,4-4,.82-2.54-.12-5.36-2-7-2.66-2.31-7.32-2.36-9,0Z"/>
    <polygon class="cls-3" points="400 446.49 402 450.49 402 450.49 400 446.49"/>
    <path class="cls-3" d="M443,401.49c-1.54.67-4.15,2.29-4,4,.2,2.27,5.17,3.48,5,4-.19.57-5.93-2.07-8,0-1.87,1.88-.03,6.89,1,9,.77,1.58,1.16,2.38,2,3,3.89,2.89,10.78-1.79,12,0,.76,1.11-1.58,3.42-1,4,.68.67,4.98-1.24,7-5,1.37-2.55,1.2-5.04,1-8-.25-3.67-.4-5.91-2-8-2.93-3.83-8.9-4.77-13-3Z"/>
    <path class="cls-3" d="M463,396.49c-.68.38-.78,2.01,0,3,1.16,1.46,3.73.79,4,0,.36-1.05-2.87-3.64-4-3Z"/>
    <path class="cls-3" d="M453,445.49c-.62.3-.68,1.92,0,3,1.05,1.69,3.63,1.66,4,1,.55-.96-2.87-4.54-4-4Z"/>
    <path class="cls-3" d="M438,390.49c-1.49-.82-4.01.3-4,1,.02,1.07,6,2,6,2h0c-1.47-2.67-1.66-2.81-2-3Z"/>
    <path class="cls-3" d="M431,384.49c-.88,1.02-.73,2.42,0,3,1.02.81,2.91-.2,3-1,.07-.68-1.11-1.6-3-2Z"/>
    <path class="cls-3" d="M484,399.49c-.54,2.03,1.07,4.11,0,5-.87.73-2.83.06-3,0-1.29-.45-1.54-1.16-2-1-.74.25-.47,2.22-1,6-.33,2.33-.6,2.78-1,3-1.33.73-3.62-1.43-4-1-.44.49,2.68,3.03,2,5-.36,1.05-1.4.79-2,2-.87,1.76.88,3.2,0,5-.51,1.06-1.2.74-2,2-1.06,1.67-.17,2.75-1,4-1.32,1.99-4.98,1.41-5,2-.01.48,2.41.9,3,1,1.49.26,2.67.46,4,0,1.2-.42,1.86-1.14,2-1,.25.26-2.32,2.11-2,4,.17,1.04,1.15,1.72,3,3,1.9,1.32,2.36,1.12,3,2,1.12,1.52.05,2.56,1,4,1.25,1.91,3.71.98,5,3,.82,1.29.16,2.2,1,3,1.05,1,2.61.12,5,0,5.16-.27,7.09,3.34,10,2,1.74-.8,1.15-2.13,3-3,3.11-1.46,6.55,1.48,8,0,.89-.91.14-2.58,1-3,.93-.46,2.07,1.34,3,1,1.56-.57-.4-6.07,2-8,1.53-1.23,3.18.3,5-1,2.32-1.66,2.06-5.91,2-7-.22-3.78-1.94-5.05-1-7,.86-1.79,2.7-1.53,3-3,.42-2.03-2.95-3.12-3-6-.03-2.01,1.59-3.02,1-4-.6-1-2.35-.08-4-1-2.06-1.15-1.24-3.63-3-7-1.53-2.94-4.85-6.24-8-6-2.34.18-2.86,2.18-5,2-2.27-.19-2.66-2.52-5-4-4.83-3.06-13.94.03-15,4Z"/>
    <path class="cls-3" d="M509,314.49c-4.85.34-11.89,1.83-12,4-.11,2.08,6.31,2.31,8,7,1.05,2.91-.9,4.26,0,7,1.44,4.36,8.67,7.86,15,6,4.1-1.21,8.44-4.84,9-10,.73-6.7-5.45-11.02-7-12-4.14-2.62-8.3-2.33-13-2Z"/>
    <path class="cls-3" d="M485,288.49c-1.4,1.66,3.71,9.6,6,9,1.31-.34,2.1-3.56,1-6-1.51-3.36-6.07-4.1-7-3Z"/>
    <path class="cls-3" d="M463,291.49c-.97.66-1.37,2.01-1,3,.68,1.8,3.87,2.32,5,1,.66-.77.56-2.11,0-3-.81-1.28-2.71-1.89-4-1Z"/>
    <path class="cls-3" d="M470,318.49c-1.02-.6-2.61-.67-3,0-.75,1.29,2.9,5.5,4,5,.82-.38,1.06-3.79-1-5Z"/>
    <path class="cls-3" d="M475,329.49c.56,1.13,3.44,1.13,4,0,.47-.96-.58-3-2-3s-2.47,2.04-2,3Z"/>
    <path class="cls-3" d="M454,331.49c.49-.68,4.12.41,6,3,.73,1.01,1.44,2.59,1,3-.56.52-2.76-.96-4-2-1.37-1.16-3.45-3.38-3-4Z"/>
    <path class="cls-3" d="M468,342.49c-1.66.81-2.02,4.91,0,7,1.26,1.3,3.71,2.09,5,1,1.34-1.13.71-3.67,0-5-1.07-2.01-3.57-3.7-5-3Z"/>
    <path class="cls-3" d="M432,363.49c-.93,1.58,3.06,6.58,5,6,1.22-.36,2.13-3.06,1-5-1.45-2.49-5.32-2.15-6-1Z"/>
    <path class="cls-3" d="M426,289.49c-1.04-1.08-2.94-1.7-4-1-1.36.9-.76,3.56,0,7,.28,1.24.51,1.82,1,2,.94.35,2.32-.94,3-2,.93-1.45,1.68-4.25,0-6Z"/>
    <path class="cls-3" d="M402,290.49c-1.02.44-.89,1.59-2,2-.83.31-1.2-.22-2,0-1.67.46-2.63,3.46-2,4,.35.3,1.24-.13,3-1,1.34-.66,1.34-.84,2-1,1.51-.36,2.11.45,3,0,.87-.45,1.56-1.88,1-3-.56-1.11-2.09-1.39-3-1Z"/>
    <path class="cls-3" d="M400,276.49c-.74.43-1.29,1.42-1,2,.38.77,2.26.95,3,0,.41-.52.53-1.47,0-2-.57-.56-1.52-.28-2,0Z"/>
    <path class="cls-3" d="M400,267.49c-.87.29-1.23,1.26-1,2,.14.44.5.89,1,1,1,.22,2.27-1,2-2-.18-.68-1.09-1.3-2-1Z"/>
    <path class="cls-3" d="M397,255.49c-.68,1.16-.46,1.5-1,2-1.04.96-2.33.17-3,1-.45.56.03,1.03,0,3-.03,1.86-.47,2.53,0,3,.44.43,1.4.42,2,0,1.02-.72.19-2.06,1-4,.83-2,2.26-1.87,3-4,.45-1.3.44-2.83,0-3-.47-.18-1.48,1.11-2,2Z"/>
    <path class="cls-3" d="M404,274.49c-.53,0-1.02.55-1,1,.03.79,1.59,1.36,2,1,.27-.24.04-.88,0-1-.05-.15-.35-.99-1-1Z"/>
    <path class="cls-3" d="M396,266.49c.3-.3.96-.02,1,0,.86.39,1.33,1.67,1,2s-1.61-.14-2-1c-.02-.04-.3-.7,0-1Z"/>
    <path class="cls-3" d="M389,255.49c-1.72.81-2.55.32-3,1-.52.78-.1,2.42,1,3,.89.47,1.86.06,2,0,1.02-.45.87-1.22,2-2,1.07-.74,1.84-.49,2-1,.22-.68-.89-1.96-2-2-.69-.02-.83.45-2,1Z"/>
    <path class="cls-3" d="M488,261.49c-2.08.52-5.82,1.45-8,5-1.97,3.21-2.08,7.57,0,11,.24.39,3.05,4.87,8,5,3.64.1,6.1-2.21,8-4,2.06-1.93,5.75-5.4,5-10-.55-3.36-3.25-5.94-6-7-2.76-1.06-5.21-.45-7,0Z"/>
    <path class="cls-3" d="M478,251.49c-3.48.81-4.11.14-5,1-1.39,1.35-.84,3.97,0,8,.62,2.99.96,4.5,2,5,1.68.81,4.03-.87,7-3,1.87-1.34,2.81-2.03,3-3,.38-1.96-1.85-2.89-2-6-.08-1.72.54-2.49,0-3-.68-.64-1.97.29-5,1Z"/>
    <path class="cls-3" d="M455,189.49c.94-1.87,8.68-.82,9,1,.22,1.27-2.96,4.06-6,3-2.02-.7-3.53-2.94-3-4Z"/>
    <path class="cls-3" d="M482,150.49c-2.19.74-4.44,2.84-4,4,.47,1.24,4.12,1.74,6,0,1.18-1.09,1.79-3.17,1-4-.73-.77-2.43-.19-3,0Z"/>
    <path class="cls-3" d="M459,150.49c-1.46,1.16-2.74,3.37-2,5,.09.19.43.93,1,1,.93.11,1.8-1.62,3-4,.89-1.77,1.33-2.66,1-3-.44-.46-2,.21-3,1Z"/>
    <path class="cls-3" d="M461,139.49c-.5.15-.13,1.23-1,3-.58,1.18-1.2,1.64-1,2,.24.41,1.32.25,2,0,.26-.1,1.75-.65,2-2,.3-1.59-1.34-3.2-2-3Z"/>
    <path class="cls-3" d="M453,137.49c-1.17-.1-1.91.88-2,1-.67.91-.77,2.41,0,3,.63.49,1.59.15,2,0,.38-.13,1.99-.71,2-2,.01-1.01-.96-1.91-2-2Z"/>
    <path class="cls-3" d="M448,129.49c-.27-.44-1.31-.4-2,0-1.2.71-1.49,2.65-1,3,.42.3,1.5-.5,2-1,.06-.06,1.38-1.38,1-2Z"/>
    <path class="cls-3" d="M430,103.49c-1.64.26-4.06,1.14-4,2,.07,1.09,4.08,2.4,7,1,.81-.39,2.15-1.28,2-2-.19-.95-2.89-1.34-5-1Z"/>
    <path class="cls-3" d="M465,60.49c-1.19.61.59,3.84-1,6-1.72,2.35-5.38.68-7,3-1.47,2.11.41,5.15-1,6-.96.59-2.09-.69-4,0-1.07.39-1.19.96-2,1-1.65.08-2.6-2.19-3-2-.63.31.42,6.79,4,8,1.93.65,3.73-.51,4,0,.43.81-4.66,2.72-6,7-1.13,3.63.65,8.31,3,9,1.27.37,2.1-.59,3,0,1.42.93-.25,3.6,1,6,1.49,2.85,6.19,3.57,9,4,3.07.47,4.36.04,5,1,1.34,2.01-2.65,6.45-2,7,.58.49,3.21-3.51,8-5,2.96-.92,3.74.06,10,0,6.33-.06,9.5-.09,11-2,2.59-3.3-1.37-9.24,1-11,1.68-1.24,4.23,1.32,6,0,1.77-1.32-.31-4.22,1-10,.72-3.16,1.82-4.43,1-6-.9-1.71-2.78-1.29-4-3-1.42-2,.1-4.07,0-7-.22-6.61-8.53-13.28-13-12-1.9.55-2.72,2.42-4,2-1.71-.56-1.03-4.16-3-5-1.27-.54-1.94.78-5,1-2.39.17-2.85-.57-4,0-1.95.96-1.47,3.49-3,4-1.84.61-3.8-2.61-5-2Z"/>
    <path class="cls-3" d="M425,45.49c-.64,1.96,1.75,3.81,2,4,.54.42,2.24,1.73,4,1,1.5-.63,2.31-2.44,2-4-.4-2.01-2.53-2.9-4-3-1.37-.09-3.48.42-4,2Z"/>
    <path class="cls-3" d="M370,63.49c-1.86.18-3.51,2.8-3,5,.63,2.72,4.39,4.1,6,3,1.11-.76,1.02-2.57,1-3-.11-2.34-1.93-5.2-4-5Z"/>
    <path class="cls-3" d="M380,108.49c-1.79,1.94-.72,6.41,1,7,1.26.43,2.3-1.42,4-1,1.87.46,2.12,3.08,3,3,1.08-.1,2.63-4.17,1-7-1.78-3.08-7.04-4.13-9-2Z"/>
    <path class="cls-3" d="M362,104.49c-2.69.66-11.59,2.85-12,7-.21,2.11,1.9,3.58,1,6-.4,1.09-1.19,1.78-1,3,.12.75.46.77,1,2,.79,1.79.33,2.33,1,3,.79.79,1.59.21,3,1,1.2.67,1.17,1.4,2,2,1.68,1.22,4.93.53,7-1,3.17-2.34,2.1-5.53,5-7,2.2-1.11,3.75.26,5-1,.74-.74.82-1.85,0-7-.77-4.82-1.16-7.24-2-8-2.13-1.93-5.65-1.07-10,0Z"/>
    <path class="cls-3" d="M311,142.49c4.76.25,7.34,2.69,12,1,3.42-1.24,3.51-3.09,8-5,5.17-2.19,7.73-.87,9-3,1.46-2.45-1.62-4.77,0-9,.58-1.51,1.54-2.71,1-4-.44-1.04-1.34-.91-2-2-.92-1.54.17-2.96,0-5,0,0-.18-2.19-3-5-6.28-6.26-34.38-1.33-35,6-.2,2.38,2.6,3.72,2,7-.47,2.6-2.69,4.26-5,6-1.76,1.32-4.25,2.81-8,4-5.51,1.74-6.64.58-12,2-4.29,1.14-7.7,2.04-10,5-3.24,4.18-3.48,11.46,0,15,4.46,4.53,13.58,1.48,18,0,13.88-4.65,15.61-13.5,25-13Z"/>
    <path class="cls-3" d="M291,156.49c-14.98,3.96-16.78,5.96-21,5-7.44-1.7-11.77-10.2-12-10-.27.23,8.99,8.79,7,13-1.94,4.11-14,2.8-14,3,0,.19,10.87-1.67,14,3,1.59,2.37.88,5.95,0,8-1.65,3.86-5.28,5.52-5,6,.48.81,9.95-5.92,14-3,2.03,1.46.74,3.94,3,6,3.17,2.9,9.49,1.48,13,0,4.66-1.97,5.25-4.44,9-5,4.24-.64,6.26,3.05,8,2,1.65-.99.77-4.52-1-15-1.76-10.4-1.85-12.62-4-14-1.69-1.09-3.58-.96-11,1Z"/>
    <path class="cls-3" d="M210,118.49c-1.25,1.09,1.57,9.22,7,10,1.24.18,3.58.11,4-1,1.02-2.67-9.42-10.37-11-9Z"/>
    <path class="cls-3" d="M243,97.49c-.57.69-.19,2.51,1,3,1.43.59,3.14-1.09,3-2-.17-1.1-3.19-1.98-4-1Z"/>
    <path class="cls-3" d="M237,124.49c-1.37,2.1.2,5.56,2,6,2.41.59,5.98-4.02,5-6-.83-1.68-5.42-2.43-7,0Z"/>
    <path class="cls-3" d="M252,129.49c-1.22.7-1.02,2.78-1,3,.13,1.18.85,2.83,2,3,1.48.21,3.56-2.05,3-4-.47-1.65-2.73-2.73-4-2Z"/>
    <path class="cls-3" d="M244,149.49c-.2.78-.39,1.54,0,2,.71.83,3.25.5,4-1,.82-1.64-.84-4.04-2-4-1.22.04-1.95,2.79-2,3Z"/>
    <path class="cls-3" d="M221,133.49c-3.05-.15-8.68,26.05-6,27,1.9.68,10.11-10.61,8-22-.29-1.57-.91-4.95-2-5Z"/>
    <path class="cls-3" d="M315,90.49c-.78.83-.4,3.07,1,4,2.01,1.33,5.02-.78,5-2-.03-1.5-4.74-3.33-6-2Z"/>
    <path class="cls-3" d="M286,58.49c-1.35.43-4.1,1.67-4,3,.13,1.64,4.62,3.81,7,2,1.53-1.17,2.09-3.91,1-5-.96-.96-2.92-.34-4,0Z"/>
    <path class="cls-3" d="M341,89.49c-.87.39-.6,4.52,1,5,.72.22,1.69-.3,2-1,.72-1.64-2.15-4.38-3-4Z"/>
    <path class="cls-3" d="M369,96.49c-1.05.81-2.02.75-2,1,.03.4,2.62,1.37,4,0,1.37-1.36.47-3.95,0-4-.4-.04-.42,1.79-2,3Z"/>
    <path class="cls-3" d="M352,102.49c-2.05.08-3.37,2.25-3,3,.57,1.14,5.77.34,6-1,.14-.79-1.38-2.06-3-2Z"/>
    <path class="cls-3" d="M163,146.49c-.51,1.17,2.47,4.86,5,4,1.25-.43,2.34-1.96,2-3-.65-1.97-6.42-2.32-7-1Z"/>
    <path class="cls-3" d="M150,154.49c.06.37.87.23,3,1,2.01.73,2.48,1.27,3,1,.92-.48,1.11-3.03,0-4-1.72-1.51-6.16,1.1-6,2Z"/>
  </g>
  <g>
    <path class="cls-2" d="M1457.15,266.36c1.84,1.07,3.11,1.8,5,2,3.26.33,5.76-1.23,7-2.01.81-.51,4.23-2.64,4.99-6,.17-.76.41-1.83,0-3-.39-1.1-1-1.25-1-2,0-1.45,2.24-2.24,2-3-.16-.51-1.16-.18-2-1-.74-.73-.33-1.35-1-2-.88-.85-1.97-.17-3-1-.72-.58-.55-1.21-1-2-1.08-1.88-4.48-2.54-7-1.99-1.32.29-1.36.68-6,3.01-.2.1-2,1-2,1h0l-2,2h0s-2.3,6.59,0,11c1.14,2.17,3.13,3.33,6,4.99Z"/>
    <path class="cls-2" d="M1431.14,259.39c-3.71,3.57-13,.64-13-.99,0-1.02,3.62-1.73,5-2,3.57-.71,8.53-.62,9,.99.24.81-.74,1.75-1,2Z"/>
    <path class="cls-2" d="M1426.15,275.39c.46.38,2.11-.64,2-1-.16-.51-3.84.52-4,0-.11-.36,1.54-1.38,2-1,.42.35-.42,1.65,0,2Z"/>
    <path class="cls-2" d="M1425.16,286.39c-.92.59-1.91.87-3,1-.99.12-1.11,0-3,0-2.03,0-2.98.14-3,0-.02-.14,1.07-.29,3-1,1.67-.61,1.96-.91,3-1,.7-.07.69.06,2,0,1.3-.06,1.92-.2,2,0,.11.28-.87.92-1,1Z"/>
    <path class="cls-2" d="M1440.11,220.38c-.14.81.94,1.78,2,2,.41.08.74.04,1,0,.54-.08,1.53-.22,2-1,.35-.58.4-1.44,0-2-.77-1.09-2.87-.62-4,0-.41.23-.91.51-1,1Z"/>
    <path class="cls-2" d="M1442.11,218.38c.38-.21.92-.5,1-1,.14-.84-1.08-1.69-2-2-.43-.15-1.24-.42-2,0-.68.38-1.22,1.25-1,2,.16.54.65.81,1,1,.92.5,2.08.5,3,0Z"/>
    <path class="cls-2" d="M1451.09,195.37c2.46.53,4.55-1.56,5-2,.44-.44,2.5-2.51,2-5-.4-1.97-2.14-2.95-4-4-1.29-.73-2.64-1.49-4-1-1.02.37-1.56,1.26-2,2-.29.49-1.11,2-1,4,.12,2.07,1.29,5.41,4.01,6Z"/>
    <path class="cls-2" d="M1447.07,178.37c2.62,1.04,4.94-1.08,9-3.01,8.13-3.86,13.71-2.43,14.99-6.01.11-.3.47-1.29,0-2-1.2-1.81-6.81-.25-10,1.01-5.87,2.32-5.59,4.42-10.99,6.01-2.48.73-4.86.96-5,2-.1.76,1.03,1.62,2,2Z"/>
    <path class="cls-2" d="M1407.07,177.41c.18.09,1.12.5,2,0,.7-.4,1.26-1.3,1-2-.25-.67-1.12-.83-2-1-.6-.11-.88-.04-1,0-.43.14-.83.5-1,1-.04.12-.16.53,0,1,.22.62.78.89,1,1Z"/>
    <path class="cls-2" d="M1461,96.36c-1.18,1.55-.47,2.56-2,4-1.78,1.69-5.24,2.67-8,1.01-1.64-.99-3.11-2.95-3-5,.02-.44.14-1.2,3-5,2.36-3.14,3.2-3.84,3-5-.26-1.43-2-3-2-3h0s0-1.99,0-4c0-2,0-1.99,0-2,.22-1.98,1.84-3.09,4-5,4.75-4.21,4.89-5.92,6.99-6.01,1.7-.07,1.84,1.04,4,1,2.61-.05,3.72-1.68,5-1,1.09.57.6,1.9,2,3,1.15.89,1.73.21,3,1,.74.46.99.97,3,5,1,1.99.99,1.97,1,2,.62,1.94.08,3.1,0,7-.03,1.77.08,1.5,0,2-.52,3.39-4.14,5.51-4.99,6-6.58,3.84-12.2.34-15,4.01Z"/>
    <path class="cls-2" d="M1434.99,79.38c2.17-.12,3.48-2.19,4-3,.42-.67,2.01-3.16,1-5-.65-1.17-2.1-1.45-5-2-2.67-.51-4.01-.76-5,0-1.46,1.13-1.4,3.58-1,5,.43,1.52,1.4,2.43,2,3,.9.85,2.23,2.1,4,2Z"/>
    <path class="cls-2" d="M1458.95,42.36c.49.83,2.59.68,4,0,2.36-1.14,3.69-4.22,3-5-.66-.74-3.12.55-4,1-.91.48-2.56,1.36-3,3-.09.33-.18.69,0,1Z"/>
    <path class="cls-2" d="M1498.99,83.33c.99-.02,1.65-.66,2-1,.42-.41,1.25-1.22,1-2-.24-.76-1.33-1.01-2-1-.99.02-1.65.66-2,1-.42.41-1.25,1.22-1,2,.24.76,1.33,1.01,2,1Z"/>
    <path class="cls-2" d="M1427.02,116.39c.08.58.82,5.21,5.01,8,3.5,2.33,9.24,3.28,13-.01,3.6-3.15,3.09-8.19,2.99-9-.07-.54-.76-5.63-5.01-8-2.27-1.27-4.47-1.14-7-.99-2.91.17-5.21.3-7,2.01-2.76,2.63-2.14,6.96-1.99,8Z"/>
    <path class="cls-2" d="M1404.02,122.41c1.1-.58,1.85.85,5,1,1.29.06,1.54-.17,3,0,1.05.12,1.52.3,2,0,.75-.47.36-1.41,1-2,.96-.88,2.5.65,4,0,1.73-.75.77-3.27,3-5,1.01-.79,1.81-.73,3-2,.38-.4,1.27-1.35,1-2-.27-.65-1.38-.28-2-1-.92-1.08-.04-3.82,1-4,.7-.12,1.01.99,2,1,1.1,0,2.24-1.36,2-2-.29-.75-2.27.02-3-1-.79-1.1.85-2.91,0-4-.58-.74-1.66-.32-2-1-.47-.95,1.38-2.36,1-3-.51-.86-4.28,1-5,0-.62-.86,1.69-2.99,1-4-.6-.89-2.7.24-4-1-.78-.74-.31-1.42-1-2-1.48-1.24-4.47,1.24-6,0-.82-.67-.3-1.66-1-2-1.25-.61-3.84,2.1-7,3.01-.16.05-.85.24-1,0-.25-.39,1.26-1.56,1-2-.17-.3-.92.15-2,0-1.45-.19-2.4-1.29-3-2-.6-.7-1.21-1.41-1-2,.19-.54.87-.42,2-1,1.29-.66,1.99-1.62,3-3,.7-.96,1.05-1.45,1-2-.09-.94-1.06-1.75-2-2-.55-.15-1.02-.09-4,1-1.74.64-2.12.82-3,1-1.45.3-2.5.53-3,0-.87-.91.85-3.15,0-4-.32-.32-.63-.07-3,0-1.44.04-1.38-.05-3,0-1.62.05-1.67.14-2,0-.64-.27-.91-.82-2-3-1.01-2.02-.98-1.95-1-2-2.17-4.77-2.45-6.01-3.01-6-.87.03-.56,3.11-3,5-.35.27-1.56,1.21-3,1-.88-.13-1.55-.65-2-1-1.37-1.07-1.23-1.85-2-2-.87-.16-1.25.82-3,1-.38.04-.66.07-1,0-1.89-.38-2.67-3.12-3-3-.27.1.41,1.79,0,4-.12.68-.33,1.78-1,2-.34.11-.71-.05-2-1-2.1-1.55-2.35-2.02-3-2-.92.04-1.88,1.04-2,2-.12.99.7,1.35,1,3,.09.48.22,1.22,0,2-.54,1.94-3.04,3.38-5,3-.62-.12-1.08-.41-2-1-1.72-1.1-2.01-1.93-3-2-.75-.05-1.82.34-2,1-.47,1.73,5.53,4.16,5.01,6-.1.33-.27.18-1,1-1,1.13-.99,1.81-2,3-.41.48-.76.8-1,1-1.59,1.39-2.3,1.12-3,2-.94,1.19-.14,2.32-1,3-.73.57-1.44-.12-3,0-2.12.16-3.62,1.64-5,3-1.3,1.29-2.02,1.99-2,3,.03,1.25,1.17,1.73,1,3-.13.95-.8.98-1,2-.29,1.52.93,2.92,1,3,1.02,1.13,1.83.67,3,2,.84.95.98,1.81,1,2,.08.59-.08.7,0,1,.31,1.19,3.1.73,6,1.99,2.26.98,4.31,2.89,4,4-.05.19-.14.24-1,1-1.97,1.74-2.02,1.89-2,2,.14.89,4.08.19,5,2,.29.56.3,1.39,0,2-.28.58-.78.86-1,1-2.07,1.28-1.72,3.22-4,5-1.63,1.27-2.76,1.02-3,2-.22.92.74,1.28,1,3,.23,1.48-.37,1.94,0,3,.32.91.99,1.21,2,2,3.09,2.42,2.82,4.29,5,5,.54.18,1.36.12,3,0,3.22-.23,4.83-.35,6-1.01,3.08-1.72,2.27-5.16,4.99-6,1.36-.42,1.65.41,4,0,2.24-.39,2.68-1.26,4-1,1.42.28,2.61,1.64,3,3,.69,2.42-1.15,4.92-1,5,.2.1,1.74-5.3,4.99-6,1.85-.4,4.24.71,7,1.99,1.68.78,2.51,1.36,3,1,1.11-.82-1.32-4.97,0-6,.27-.21.85-.14,2,0,2.37.29,3.56.43,4,1,1.11,1.4-1.05,3.81,0,5,.67.75,2.37.74,3,0,.53-.62,0-1.43-2.01-7-.19-.53-.44-1.22-1-2-1.03-1.43-2.1-1.73-2-2,.19-.52,4.54-.39,6,1.99.51.84.33,1.42,1,2,1.04.91,3.14.95,4,0,1.27-1.4.21-5.35-2.01-7-.49-.36-.98-.57-1-1-.04-.91,2.04-2.21,4-2,1.64.17,2.15,1.3,3,1,1.3-.47.56-3.24,2-4Z"/>
    <path class="cls-2" d="M1401.05,154.41c1.92,2.37,10.58-.03,11-3.01.2-1.45-1.6-2.71-2-3-2.34-1.64-6.05-1.38-8,1.01-1.09,1.33-2,3.77-1,5Z"/>
    <path class="cls-2" d="M1405.05,159.41c-1.4.48-3.96,1.13-6,0-.29-.16-1.06-.58-1-1,.02-.12.13-.51,3-1,2.35-.4,3.53-.59,4,0,.12.16.47.69,0,2Z"/>
    <path class="cls-2" d="M1372.07,176.44c.4.25,2.57,1.61,5,1,2.14-.54,3.27-2.3,5-5,1.64-2.56,1.13-2.73,2.99-6,2.01-3.51,3.08-4.17,2.99-6-.1-2.1-1.62-3.61-2-4-1.47-1.47-3.19-1.87-4-2-2.34-.36-4.15.56-5,1-3.26,1.71-4.59,4.86-4.99,6-.94,2.65.07,3.02-.99,6-1,2.79-2.17,3.28-2,5,.23,2.26,2.49,3.67,3,4Z"/>
    <path class="cls-2" d="M1364.05,157.44c.61.44,1.45.31,2,0,.66-.38,1.23-1.23,1-2-.18-.6-.76-.88-1-1-.12-.06-1.22-.57-2,0-.88.64-.92,2.33,0,3Z"/>
    <path class="cls-2" d="M1378.05,149.43c1.65-.22,2.47-.33,3-1,.67-.86.71-2.36,0-3-.43-.38-1.29-.26-3,0-.59.09-1.99.33-4,1-1.89.64-1.98.88-2,1-.11.71,1.57,1.66,3,2,1.07.25,1.93.14,3,0Z"/>
    <path class="cls-2" d="M1371.04,147.44c.23.73-.55,1.54-1,2-2.09,2.14-3.72,1.33-6,3.01-2.37,1.74-2.77,4.22-4,4-.49-.09-.88-.56-1-1-.3-1.11,1.07-2.33,3-4,2.09-1.82,2.09-1.31,4-3,1.36-1.21,1.92-1.96,3-2,.79-.03,1.79.32,2,1Z"/>
    <path class="cls-2" d="M1375.12,236.43c1.03-.09,2.37-.7,3-2,.04-.09.72-1.55,0-3-.99-2-3.67-2-4-2-1.39,0-3.55.59-4,2-.63,1.99,2.26,5.23,5,5Z"/>
    <path class="cls-2" d="M1379.1,215.43c.97.19,2.23-1.19,2-2-.19-.65-1.3-.86-2-1-.54-.1-.81-.16-1,0-.57.49-.12,2.78,1,3Z"/>
    <path class="cls-2" d="M1372.1,208.44c1.06-.11,2.22-1.12,2-2-.18-.75-1.32-1.25-2-1-.33.12-.32.34-1,1-.71.7-1,.74-1,1,0,.49,1.04,1.1,2,1Z"/>
    <path class="cls-2" d="M1378.09,204.43c.98,0,2.39,0,3-1,.35-.59.39-1.44,0-2-.76-1.09-2.97-.86-4,0-.27.22-.33.39-1,1-.77.71-1.01.79-1,1,.03.53,1.62.99,3,1Z"/>
    <path class="cls-2" d="M1422,90.39c2.03.6,4.73.05,6-2.01,1.37-2.23.13-4.74,0-5-1.03-2-3.45-3.56-6-2.99-1.91.42-3.62,1.97-4,4-.5,2.72,1.56,5.28,4.01,6Z"/>
    <path class="cls-2" d="M1412.97,64.4c-2.04,1.12-6.45-2.45-6-3.99.22-.76,1.56-.94,2-1,2.22-.31,4.9,1.16,5,3,.04.71-.29,1.61-1,2Z"/>
    <path class="cls-2" d="M1318.96,50.48c1.82.63,5.7-3.85,5-5-.61-1-5.29-.55-6,2.01-.31,1.1.1,2.69,1,3Z"/>
    <path class="cls-2" d="M1277.97,59.52c1.15-.03,1.87-2.55,2-3,.23-.79.7-2.44,0-3-.84-.67-3.39.17-4,2-.61,1.83.91,4.03,2,4Z"/>
    <path class="cls-2" d="M1274.95,32.52c1.61-.45,2.57-2.39,2-4-.45-1.27-1.81-2.18-3-2-1.92.29-3.16,3.36-2,5,.62.88,1.9,1.3,3,1Z"/>
    <path class="cls-2" d="M1325,100.48c1.06-1.16-.16-2.74.99-6,.38-1.06.56-1.59,1-2,2.13-2.01,5.95.84,8-1.01,1.07-.96.33-2,2-4,.65-.78.89-.78,2-2,1.35-1.49,2.03-2.24,2-3-.06-1.33-1.71-2.54-3-3-1.04-.36-1.83-.23-3-1-.49-.33-.85-.56-1-1-.29-.83.51-1.32,1-3,.23-.79.61-2.08,0-3-.42-.63-.98-.6-1-1-.06-.94,3-2,3-2h0s.45-1.47,0-2c-.46-.54-1.83-.06-2,0-3.72,1.33-3.48,6.99-6.99,8.01-.36.1-1.18.34-2,0-1.73-.71-1.29-3.02-3-4-1.26-.72-2.93-.28-4,0-1.59.42-1.82,1.01-3,1-1.42-.01-1.74-.87-3-1-.51-.05-1.43,0-4,2-2.32,1.81-3.74,2.92-5,5-1.2,1.99-1.53,3.67-1.99,6-.64,3.23-1.19,5.99,0,9,.48,1.21,1.21,3.06,3,4,.85.45,1.73.57,7,0,4.21-.46,5.12-.71,6,0,1.37,1.1.53,2.8,2,4,1.37,1.11,3.95,1.15,5,0Z"/>
    <path class="cls-2" d="M1311.02,115.49c1.11-.49,2.06-1.65,2-3-.07-1.67-1.63-2.79-3-3-.2-.03-1.93-.27-3,1-.94,1.12-.88,2.84,0,4,.95,1.24,2.66,1.59,4,1Z"/>
    <path class="cls-2" d="M1303.01,103.5c1,.56,2.44.11,3-1s0-2.59-1-3c-1.23-.51-2.86.65-3,2-.08.74.28,1.6,1,2Z"/>
    <path class="cls-2" d="M1295.03,129.5c.13-.16.09-.12,2-3,1.31-1.98,1.96-2.97,2-3,3.03-2.98,11.19,1.49,12-.01.26-.49-.35-1.44-1-2-2.62-2.26-6.64,1.16-10-.99-.87-.56-2.11-1.75-2-3,.15-1.8,2.98-2.32,3-4,.01-1.52-2.27-2.45-2-3,.35-.74,4.41.99,5,0,.28-.47-.22-1.5-1-2-1.69-1.09-3.75.98-5,0-1.01-.79-.99-3.17,0-4,.24-.2.51-.29.62-.32,1.18-.38,2.31.44,2.38.32.11-.19-3.21-1.81-3-3,.15-.87,2.07-.68,3-2,.57-.82,0-1.89,0-4v-1c0-.5,0-1,0-1,0-4.78-1.01-7-1.01-7-.94-2.08-2.67-3.16-4-4-4.14-2.59-6.84-1.18-10-3.99-1.61-1.43-1.94-2.71-2-3-.35-1.52.38-2,0-3-.61-1.59-2.76-1.16-6-2.99-2.26-1.28-1.78-1.8-4-3-2.38-1.28-2.9-.66-6-1.99-1.67-.72-3.34-1.43-5-3-1.69-1.59-1.64-2.42-3-3-1.74-.73-4.28-.41-5,1-.44.87-.05,1.87,0,2,.86,2.1,3.92,2.04,4,3,.08.87-2.45,1.53-6,3.01-5.32,2.2-10,5.01-10,5.01,0,0-1.72-.91-3-1-1.31-.09-2.29.67-4,2-1.74,1.36-3.11,2.96-4,4-1.06,1.25-1.27,1.64-2,2-1.87.93-3.91.05-4,0-2.19-.99-2.83-3.35-3-4-.19-.69-.12-.88,0-5,.09-3.28.06-3.6,0-4-.33-2-.93-2.24-1-4-.07-1.74.45-2.71,0-3-.44-.28-1.42.33-2,1-.42.49-.86,1.29-1,4-.08,1.56-.01,2.74,0,3,.33,5.83-.83,6.04,0,8,.79,1.86,2.27,2.72,3,5,.13.39.35,1.2,0,2-.18.43-.62,1.06-1,1-.53-.08-.32-1.4-1-3-.85-2-1.95-1.82-3-4-.7-1.45-.29-1.7-1-3-.86-1.57-2.11-2.4-3-3-1.2-.8-3.38-2.25-6-1.99-2.18.21-2.98,1.44-5,1-.52-.11-1.36-.3-2-1-.94-1.04-.5-2.19-1-5-.23-1.25-.68-3.02-1-3-.59.04.36,5.79-1.99,7-.52.27-1.68.18-4,0-2.14-.16-2.66-.37-3,0-.69.74.75,2.24,1,5,.19,2.09-.29,5.2-1.99,6-1.52.71-3.1-.84-4,0-.65.6-.51,2.03,0,3,1.09,2.06,3.63,1.62,4,3,.36,1.31-1.87,1.99-3,5-.84,2.25-.31,3.78-1,4-1.16.38-2.63-4.06-5-4-1.77.05-1.97,2.55-4,3-3.02.68-4.84-4.35-8-3.99-3.38.38-5.18,6.57-6.99,6.01-.88-.27-.91-1.85-2-2-.73-.1-1.07.55-2,1-2.25,1.1-4.69-.52-5,0-.41.71,4.35,3.11,4,5-.48,2.64-10.6,2.27-11,5.01-.15,1.07,1.28,1.76,2,5,.2.91.22,1.46,0,2-.62,1.53-2.72,1.95-3,2-1.71.32-2.65-.43-3,0-.68.83,2.68,3.7,2,5-.87,1.68-7.9-.39-8,0-.11.43,8.17,2.57,8,3.99-.13,1.07-4.98,1.17-5,2-.02.85,5.01.59,6,2.99.53,1.29-.67,1.93-1.99,7-.43,1.63-.45,2.15-1,3-.96,1.49-2.09,1.79-4,3-2.41,1.53-4.84,3.08-5,5-.2,2.45,3.36,4.53,3,5-.34.44-3.34-1.68-4-1-.55.56,1.37,2.18,1,4-.52,2.58-4.93,2.21-6,5.01-1.04,2.74,2.24,5.63,1.01,7-.64.71-2.2.68-3,0-1.31-1.1-.13-3.54-1-4-.96-.51-3.95,1.65-4,4-.04,2.13,2.35,3.53,2,4-.33.44-2.22-.99-6-1.99-1.53-.41-2.11-.4-4-1-1.18-.37-3-1.01-3-1,0,.02,4.44.75,5,3,.23.93-.35,1.49,0,3,.18.77.38,1.6,1,2,1.61,1.03,4.3-2.01,6-1.01.73.43.9,1.39,1,2,.4,2.36-1.29,4.73-2.99,6-1.99,1.48-4.04,1.52-4,2,.06.6,3.18.05,5,2,.67.71,1.4,2.01,1,3-.66,1.63-3.99,1.43-4,2-.01.74,5.57.26,7,2.99.49.94.11,1.5,1,5,.33,1.3.55,1.87,1,2,1,.29,1.79-2.04,3-2,2.22.07,3.11,8.02,5.01,8,.81,0,.79-1.46,2-2,2.48-1.11,4.91,3.96,9,3.99,4.08.03,6.05-4.98,9-4.01,1.56.52,1.15,1.97,3,3,3.02,1.67,5.63-1.37,9,0,2.72,1.1,3.74,4.19,4,5,1.16,3.5.26,8.07-1.99,9-1.58.65-3-.83-4,0-.97.81-.48,2.91,0,5,.92,3.96,2.16,4.6,2.01,7-.15,2.28-1.39,3.71-1,4,.66.48,3.7-3.63,5-3,1.55.75-1.33,7.38,1.01,9,1.48,1.03,5,0,5,0,0,0,3.15,1.71,3,3-.1.87-1.61.71-3,2-1.71,1.58-1.87,4.09-1.99,6-.23,3.61.88,5.42,0,6-.59.39-1.35-.27-5-1-1.25-.25-1.7-.28-2,0-.79.73.63,2.49,0,4-.63,1.52-3.16,2.39-5,2-4.51-.96-7.93-10.25-5.01-15,1.93-3.15,6.18-3.52,6-5.01-.22-1.73-5.98-1.23-7-3.99-.96-2.57,2.95-5.86,1.99-7-.79-.95-3.59,1.15-5,0-1.54-1.25.81-4.51-1.01-7-1.12-1.54-3.37-2.16-5-2-.33.03-1.22.36-3,1-2.92,1.06-3.5,1.33-4,1-.98-.65-.29-2.73-1-3-.71-.26-1.43,1.78-3,2-1.5.21-3.29-1.32-4-3-.92-2.17.56-3.19,0-6-.45-2.27-2.08-4.94-4-5-1.2-.04-2.39.95-3,2-1.86,3.2,1.71,6.83,0,9-1.05,1.33-3.33,1.14-5,1-.68-.06-4.85-.4-6-2.99-.14-.31-.24-.68,0-4,.28-3.83.5-4.49,0-5-.97-.98-3.73-.56-5,1-1.58,1.95-.36,5.06,0,6,1.91,4.88,6.36,5.68,6.01,7.99-.25,1.69-2.89,3.02-5,3-2.23-.02-2.68-1.55-5-2-3.46-.66-6.65,1.91-8,3.01-1.14.92-4.69,3.79-4.99,8-.34,4.68,3.69,6,3.01,10-.67,3.93-4.86,4.35-4.99,8-.11,3.06,2.8,3.58,3.01,7,.22,3.69-2.92,7.34-5.99,9.01-2.95,1.6-3.99.37-7,2.01-.23.13-5.28,2.97-5.99,8.01-.18,1.28-.13,3.06,3.01,9,3.4,6.43,5.11,9.64,7.01,10.99,5.44,3.86,12.26,2.15,18,4.98.35.17,4,2,4,2,5.66-1.41,6-1.01,6-1.01,1.01,1.22-4.54,5.14-5.99,12.01-1.08,5.15.4,10.8,2.01,11,3.17.39,6.31-20.36,9.98-20.01,1.78.17,3.65,5.31,2.01,8-1.12,1.85-3.14,1.3-4,3-1.43,2.83,3.19,6.18,2.01,9-1.25,2.99-7.67,2.1-8,4.01-.34,2.01,6.73,3.43,7.01,6.99.23,3.03-4.66,4.87-3.99,7,.63,2.02,5.24.97,7,3.99.87,1.5.81,3.58,0,5-1.26,2.21-4.06,2.3-4,3,.11,1.25,9.06.33,10,2.99.76,2.14-4.46,4.33-3.99,7,.77,4.4,15.84,3.68,17.01,8.99.53,2.41-2.11,4.7-.99,6,.67.78,1.85.23,5,0,5.64-.42,6.39,1.01,10,0,2.26-.64,2.88-1.46,4-1,1.29.53,1.33,1.97,3,5,1.44,2.6,2.15,3.9,3,4,3.05.37,5.9-12.34,8.99-12.01,1.86.2,2.1,4.91,4,5,1.56.07,2.08-3.09,5.99-7.01,1.76-1.76,3.35-3.31,5-3,2.32.42,2.88,4.16,4,4,1.69-.24.74-8.77,3.99-10,1.44-.55,2.48.8,4,0,1.52-.8,2.33-3.11,2-5-.49-2.83-3.32-3.57-3-5,.31-1.38,3.33-2.25,6-2.01,5.16.48,8.89,5.12,9,4.99.11-.12-4.42-2.84-5.01-7-.36-2.55.77-5.68,2.99-7,2.09-1.24,3.35.19,8,0,5.39-.23,7.53-2.32,9-1.01,1.9,1.7-.23,6.47,1.01,7,1.07.45,2.56-3.13,5-3,2.23.12,3.04,3.24,5,3,1.43-.18,1.6-1.91,3-2,1.52-.1,2.02,1.91,4,3,2.36,1.3,6.04.89,8-1.01,2.71-2.62,1.9-7.85,0-11-2.56-4.23-7.36-5.13-7.01-6.99.29-1.54,3.64-1.33,4-3,.35-1.63-2.71-2.43-6.01-6.99-.41-.57-1.28-2.05-3-5-1.79-3.06-1.95-3.48-2-4-.27-2.71,2.67-4.42,4.99-7,6.18-6.89,3.17-14.75,6.99-16.01,2.77-.92,7.04,2.35,9.01,5.99,3.49,6.46-.89,12.98,2.01,15,1.98,1.38,4.15-1.56,11-2.01,5.62-.37,7.15,1.4,9,0,3.8-2.9-.36-12.22,2.99-14,.83-.44,2.56.04,6,.99,2.81.78,4.21,1.17,5,2,2.75,2.87.38,8.81,1.01,9,.95.28,5.41-13.36,6.99-13.01,1.04.23-1.14,6.12,2.01,12,.48.89,1.99,2.92,5.01,7,.85,1.15,2.16,2.91,3,4,5.4,6.95,9.4,12.1,15.01,12.99,4.23.67,6.97-1.46,8,0,1.25,1.77-2.75,4.97-1.99,10,.39,2.59,1.96,5.13,3,5,2.17-.28.28-11.92,4.99-14,2.89-1.28,6.69,1.74,7,1.99,4.68,3.81,4.72,11.04,5.01,11,.42-.07-2.2-14.24-.01-15,1.96-.68,6.83,9.81,9.01,8.99,1.42-.53-.28-5.09,1.99-7,3.19-2.67,10.92,2.56,12,.99.99-1.45-4.98-6.66-4.01-8,.95-1.32,7.41,2.76,9,.99,1.38-1.53-2.05-6.17-1.01-7,1.08-.86,5.78,3.27,6,2.99.25-.3-5.93-4.9-5.01-7,.25-.56.91-.73,2-1,3.76-.93,5.59.59,9,0,1.49-.26,3.98-1.05,4-2,.03-1.59-6.88-1.28-10.01-5.99-1.04-1.57-1.91-4.05-1-5,1.99-2.1,12.01,3.98,12,3.99s-12.11-4.2-12.01-8.99c.03-1.58,1.4-3.43,3-4,2.34-.84,4.52,1.32,7,0,.14-.07,1.08-.58,1-1-.19-1.01-5.95-.51-6-.99-.05-.5,6.04-1.37,6-2.01-.05-.71-7.67-.31-8-1.99-.2-.99,2.27-1.95,2-3-.29-1.14-3.36-.61-4-2-.75-1.62,2.56-4.23,2-5-.59-.8-4.05,2.18-7,1.01-1.9-.76-3.23-3.09-3-5,.15-1.26.93-1.87,3-4,2.14-2.2,5.29-5.65,4.99-6-.35-.43-4.75,4.61-10,4.01-.19-.02-3.97-.51-5-3-.72-1.75.25-3.69,2.99-8,3.92-6.18,7.31-10.71,6.99-11.01-.49-.44-7.94,10.25-14.99,9.01-1.41-.25-1.74-.78-6-1.99-3.7-1.05-6-1.37-6-1.99,0-.68,2.73-.7,6-3.01,1.17-.83,1.76-1.25,2-2,.58-1.85-1.58-2.9-2.01-6-.11-.83-.28-3.11,1-5,1.24-1.82,2.83-1.81,3-3,.23-1.68-2.83-2.4-3-4-.4-3.7,15.31-6.92,14.99-10.01-.18-1.77-5.66-3.73-10-3.99-1.6-.1-3.19.03-5-1-1.73-.98-3.44-2.89-3-4,.53-1.34,3.63-.05,6-2.01,1.59-1.32,2.68-3.96,1.99-6-1.11-3.32-6.2-2.97-7.01-5.99-.46-1.72.65-3.85,2-5,5.64-4.83,18.7,4.86,22,.98,1.03-1.21.96-3.57,0-5-2.97-4.42-13.39,1.6-23-3.98-2.51-1.46-4.32-3.33-4-4,.36-.76,3.25.55,5-1,.83-.74,1.47-2.18,1-3-1.12-1.95-7.33,1.59-10-.99-1.57-1.52-1.26-4.51-1.01-7,.38-3.69,1.74-4.7.99-7-.61-1.86-1.81-2.15-2-4-.23-2.22,1.3-3.75,1-4-.7-.59-7.26,9.2-11.99,8.01-2.22-.56-3.93-3.5-4.01-6-.14-4.42,4.86-6.45,3.99-10-.37-1.5-1.71-2.98-3-3-2.25-.03-2.38,4.4-5.99,6.01-2.56,1.14-5.9.43-8-.99-2.37-1.61-2.15-3.43-4-4-2-.61-3.36,1.16-7,3.01-1.98,1.01-8.21,4.17-13,2.01-2.35-1.06-4.46-3.46-4-5,.63-2.13,5.98-1.92,6-3.01.02-.88-3.51-1.19-8-3.99-3.01-1.88-3.03-2.73-3-3,.13-1.36,2.69-1.24,5-4Z"/>
    <path class="cls-2" d="M1245.96,50.55c3.61-.51,5.57-3.35,6-4.01,2.23-3.44,2.31-8.78-1.01-12-2.2-2.13-5.85-3.31-9-1.99-3.54,1.48-4.55,5.3-4.99,7-.39,1.47-.97,3.66,0,6,1.37,3.29,5.24,5.53,9,4.99Z"/>
    <path class="cls-2" d="M1185.97,61.6c1.79-2.51-.68-6.48-1.01-7-.45-.72-2.8-4.51-6-3.99-2.8.45-3.94,3.83-4,4-.82,2.54.12,5.36,2.01,7,2.66,2.31,7.32,2.35,9,0Z"/>
    <polygon class="cls-2" points="1158.97 57.62 1156.96 53.62 1156.96 53.62 1158.97 57.62"/>
    <path class="cls-2" d="M1116.01,102.66c1.54-.67,4.15-2.3,4-4-.2-2.27-5.17-3.48-5-4,.19-.57,5.93,2.07,8,0,1.87-1.88.02-6.89-1.01-9-.77-1.58-1.16-2.38-2-3-3.89-2.88-10.78,1.79-12,.01-.76-1.11,1.58-3.42,1-4-.68-.67-4.98,1.25-7,5.01-1.37,2.55-1.2,5.04-.99,8,.25,3.67.4,5.91,2.01,8,2.94,3.83,8.9,4.77,13,2.99Z"/>
    <path class="cls-2" d="M1096.01,107.67c.67-.38.78-2.01,0-3-1.16-1.46-3.73-.79-4,0-.36,1.05,2.87,3.63,4,3Z"/>
    <path class="cls-2" d="M1105.97,58.67c.62-.3.68-1.92,0-3-1.06-1.69-3.63-1.66-4-1-.55.96,2.88,4.54,4,4Z"/>
    <path class="cls-2" d="M1121.02,113.65c1.49.82,4.01-.3,4-1-.02-1.07-6-1.99-6-1.99h0c1.47,2.67,1.67,2.81,2,3Z"/>
    <path class="cls-2" d="M1128.02,119.65c.88-1.02.73-2.42,0-3-1.02-.81-2.91.2-3,1-.07.68,1.11,1.6,3,2Z"/>
    <path class="cls-2" d="M1075.01,104.69c.54-2.03-1.07-4.11,0-5,.87-.73,2.83-.06,3,0,1.29.45,1.55,1.15,2,1,.74-.25.46-2.22.99-6,.33-2.33.6-2.78,1-3,1.33-.73,3.62,1.43,4,1,.43-.49-2.68-3.03-2-5,.36-1.05,1.4-.79,2-2,.87-1.76-.88-3.2,0-5,.51-1.06,1.2-.75,2-2,1.06-1.67.17-2.75,1-4,1.31-2,4.98-1.41,5-2,.01-.48-2.41-.9-3-1-1.49-.25-2.67-.46-4,0-1.2.42-1.86,1.14-2,1-.25-.26,2.31-2.11,2-4-.17-1.04-1.16-1.72-3-3-1.9-1.32-2.36-1.12-3-2-1.12-1.52-.06-2.56-1-4-1.26-1.91-3.71-.98-5-3-.82-1.29-.16-2.2-1-3-1.05-.99-2.61-.12-5,0-5.16.27-7.09-3.33-10-1.99-1.74.8-1.15,2.13-3,3-3.11,1.46-6.55-1.48-8,0-.89.91-.14,2.58-1,3-.93.46-2.07-1.34-3-1-1.56.57.4,6.07-1.99,8-1.53,1.23-3.18-.3-5,1-2.32,1.66-2.06,5.91-1.99,7,.23,3.78,1.94,5.05,1.01,7-.86,1.8-2.7,1.53-3,3-.42,2.03,2.96,3.12,3.01,6,.03,2.01-1.59,3.02-1,4,.6.99,2.35.08,4,1,2.06,1.15,1.25,3.63,3.01,7,1.53,2.94,4.86,6.23,8.01,5.99,2.34-.18,2.86-2.18,5-2,2.27.19,2.66,2.51,5,4,4.84,3.06,13.94-.04,15-4.01Z"/>
    <path class="cls-2" d="M1050.08,189.71c4.85-.34,11.89-1.84,12-4.01.11-2.09-6.31-2.3-8.01-6.99-1.05-2.91.9-4.26,0-7-1.44-4.36-8.67-7.85-15.01-5.99-4.1,1.21-8.44,4.85-8.99,10.01-.72,6.7,5.46,11.01,7.01,11.99,4.14,2.62,8.3,2.32,13,1.99Z"/>
    <path class="cls-2" d="M1074.1,215.69c1.4-1.66-3.71-9.6-6.01-8.99-1.31.34-2.1,3.56-.99,6,1.51,3.36,6.08,4.09,7,2.99Z"/>
    <path class="cls-2" d="M1096.1,212.67c.97-.66,1.37-2.01,1-3-.68-1.8-3.87-2.32-5-1-.66.78-.56,2.11,0,3,.81,1.28,2.71,1.88,4,1Z"/>
    <path class="cls-2" d="M1089.08,185.68c1.02.6,2.61.67,3,0,.75-1.29-2.91-5.5-4-5-.82.38-1.05,3.79,1,5Z"/>
    <path class="cls-2" d="M1084.07,174.68c-.56-1.13-3.44-1.13-4,0-.47.96.58,3,2,3,1.42,0,2.47-2.05,2-3Z"/>
    <path class="cls-2" d="M1105.07,172.67c-.49.68-4.12-.41-6-2.99-.73-1.01-1.44-2.59-1-3,.55-.52,2.76.95,4,2,1.37,1.15,3.45,3.37,3,4Z"/>
    <path class="cls-2" d="M1091.06,161.68c1.66-.81,2.02-4.91,0-7-1.26-1.3-3.71-2.09-5-1-1.34,1.13-.7,3.67,0,5,1.07,2.01,3.57,3.7,5,3Z"/>
    <path class="cls-2" d="M1127.04,140.65c.93-1.58-3.06-6.58-5.01-6-1.22.36-2.12,3.06-1,5,1.45,2.49,5.32,2.14,6,.99Z"/>
    <path class="cls-2" d="M1133.1,214.64c1.04,1.08,2.94,1.7,4,1,1.35-.9.76-3.56,0-7-.28-1.24-.52-1.82-1-2-.94-.35-2.32.94-3,2-.93,1.45-1.68,4.25,0,6Z"/>
    <path class="cls-2" d="M1157.1,213.62c1.02-.44.89-1.59,2-2,.83-.31,1.2.22,2,0,1.67-.46,2.63-3.46,2-4-.35-.3-1.24.13-3,1-1.34.66-1.34.84-2,1-1.51.36-2.11-.45-3,0-.87.45-1.56,1.89-1,3,.56,1.11,2.09,1.39,3,1Z"/>
    <path class="cls-2" d="M1159.11,227.62c.74-.44,1.29-1.42,1-2-.38-.77-2.26-.95-3,0-.41.52-.53,1.47,0,2,.57.56,1.53.28,2,0Z"/>
    <path class="cls-2" d="M1159.12,236.62c.87-.29,1.23-1.26,1-2-.14-.44-.5-.89-1-1-1-.22-2.27,1.01-2,2,.18.68,1.09,1.3,2,1Z"/>
    <path class="cls-2" d="M1162.13,248.62c.68-1.16.46-1.5,1-2,1.04-.96,2.33-.17,3-1,.45-.56-.03-1.03,0-3,.03-1.86.47-2.53,0-3-.44-.43-1.4-.42-2,0-1.02.72-.19,2.06-1,4-.83,2-2.25,1.87-3,4-.45,1.3-.44,2.83,0,3,.47.18,1.47-1.11,2-2Z"/>
    <path class="cls-2" d="M1155.11,229.62c.53,0,1.02-.55,1-1-.03-.79-1.59-1.36-2-1-.27.24-.04.88,0,1,.05.15.35.99,1,1Z"/>
    <path class="cls-2" d="M1163.12,237.62c-.3.3-.96.02-1,0-.86-.39-1.33-1.67-1-2s1.61.14,2,1c.02.04.3.7,0,1Z"/>
    <path class="cls-2" d="M1170.13,248.61c1.72-.81,2.55-.32,3-1,.52-.78.1-2.42-1-3-.89-.47-1.86-.06-2,0-1.02.45-.87,1.22-2,2-1.07.74-1.84.49-2,1-.22.68.89,1.96,2,2,.69.02.83-.45,2-1Z"/>
    <path class="cls-2" d="M1071.13,242.7c2.08-.52,5.81-1.46,8-5.01,1.97-3.21,2.07-7.57,0-11-.24-.39-3.05-4.87-8-4.99-3.64-.09-6.1,2.22-8,4.01-2.06,1.93-5.75,5.4-4.99,10,.55,3.36,3.25,5.94,6.01,6.99,2.76,1.06,5.21.44,7,0Z"/>
    <path class="cls-2" d="M1081.13,252.69c3.48-.82,4.11-.14,5-1,1.39-1.35.84-3.97,0-8-.63-2.99-.96-4.5-2-5-1.69-.81-4.03.88-7,3.01-1.87,1.34-2.81,2.04-3,3-.37,1.96,1.85,2.89,2.01,6,.09,1.72-.54,2.49,0,3,.68.64,1.97-.29,5-1Z"/>
    <path class="cls-2" d="M1104.19,314.67c-.94,1.87-8.68.83-9-.99-.22-1.27,2.96-4.06,6-3.01,2.02.7,3.54,2.94,3,4Z"/>
    <path class="cls-2" d="M1077.22,353.69c2.19-.74,4.44-2.84,4-4-.47-1.24-4.12-1.74-6,0-1.18,1.09-1.78,3.18-1,4,.73.77,2.43.19,3,0Z"/>
    <path class="cls-2" d="M1100.22,353.67c1.46-1.16,2.74-3.38,2-5-.09-.19-.43-.93-1-1-.93-.11-1.8,1.63-3,4-.89,1.77-1.33,2.66-1,3,.44.46,2-.21,3-1Z"/>
    <path class="cls-2" d="M1098.23,364.67c.5-.15.13-1.23,1-3,.58-1.18,1.2-1.64,1-2-.24-.41-1.32-.25-2,0-.26.1-1.75.66-2,2-.3,1.59,1.34,3.2,2,3Z"/>
    <path class="cls-2" d="M1106.23,366.67c1.17.1,1.91-.88,2-1,.67-.91.76-2.41,0-3-.63-.49-1.59-.14-2,0-.37.13-1.99.71-2,2,0,1.01.96,1.91,2,2Z"/>
    <path class="cls-2" d="M1111.24,374.66c.27.44,1.31.4,2,0,1.2-.71,1.49-2.65,1-3-.42-.3-1.49.5-2,1-.06.06-1.38,1.38-1,2Z"/>
    <path class="cls-2" d="M1129.26,400.65c1.64-.26,4.05-1.14,4-2-.07-1.09-4.08-2.4-7-.99-.81.39-2.15,1.28-2,2,.2.95,2.89,1.33,5,1Z"/>
    <path class="cls-2" d="M1094.3,443.68c1.19-.61-.59-3.84.99-6,1.72-2.35,5.38-.69,7-3.01,1.47-2.11-.41-5.14.99-6,.96-.59,2.09.69,4,0,1.07-.39,1.19-.96,2-1,1.65-.09,2.61,2.19,3,2,.63-.31-.42-6.79-4.01-8-1.93-.65-3.73.51-4,0-.43-.81,4.66-2.72,5.99-7.01,1.13-3.64-.66-8.31-3.01-9-1.27-.37-2.1.59-3,0-1.42-.93.25-3.6-1.01-6-1.49-2.85-6.19-3.57-9-3.99-3.07-.47-4.36-.04-5-1-1.34-2.01,2.65-6.45,1.99-7-.58-.49-3.21,3.51-8,5.01-2.96.92-3.74-.05-10,0-6.33.06-9.5.1-11,2.01-2.59,3.31,1.38,9.24-.99,11-1.68,1.24-4.23-1.32-6,0-1.77,1.32.31,4.22-.99,10-.71,3.16-1.82,4.43-.99,6,.9,1.7,2.79,1.29,4,3,1.43,2-.09,4.07,0,7,.23,6.61,8.54,13.28,13.01,11.99,1.9-.55,2.72-2.42,4-2,1.71.56,1.03,4.16,3,5,1.27.54,1.94-.78,5-1,2.39-.17,2.85.57,4,0,1.95-.96,1.47-3.49,3-4,1.84-.61,3.8,2.61,5,2Z"/>
    <path class="cls-2" d="M1134.31,458.64c.64-1.96-1.76-3.81-2-4-.54-.42-2.24-1.73-4-1-1.5.63-2.31,2.44-2,4,.4,2.01,2.53,2.9,4,3,1.37.09,3.48-.43,4-2Z"/>
    <path class="cls-2" d="M1189.3,440.59c1.86-.18,3.51-2.8,3-5-.63-2.72-4.4-4.09-6-2.99-1.1.76-1.02,2.57-1,3,.11,2.34,1.93,5.2,4,5Z"/>
    <path class="cls-2" d="M1179.26,395.6c1.79-1.94.71-6.41-1.01-7-1.26-.43-2.3,1.42-4,1-1.87-.46-2.12-3.08-3-3-1.08.1-2.63,4.18-.99,7,1.78,3.08,7.04,4.12,9,1.99Z"/>
    <path class="cls-2" d="M1197.26,399.59c2.69-.66,11.59-2.86,11.99-7.01.2-2.11-1.9-3.58-1.01-6,.4-1.09,1.19-1.78,1-3-.12-.75-.46-.77-1-2-.79-1.79-.33-2.33-1-3-.79-.79-1.59-.21-3-1-1.2-.67-1.17-1.39-2-2-1.68-1.22-4.93-.52-7,1.01-3.17,2.34-2.09,5.54-4.99,7-2.2,1.11-3.75-.26-5,1-.74.75-.82,1.85,0,7,.77,4.82,1.17,7.24,2.01,8,2.13,1.93,5.65,1.06,10,0Z"/>
    <path class="cls-2" d="M1248.23,361.54c-4.76-.25-7.34-2.68-12-.99-3.42,1.24-3.5,3.1-8,5.01-5.17,2.2-7.73.88-9,3.01-1.46,2.46,1.62,4.77,0,9-.57,1.51-1.54,2.72-1,4,.44,1.04,1.34.9,2,2,.92,1.54-.17,2.96,0,5,0,0,.18,2.19,3,5,6.29,6.26,34.38,1.3,34.99-6.03.2-2.38-2.6-3.72-2.01-7,.47-2.6,2.68-4.26,4.99-6,1.76-1.33,4.24-2.82,8-4.01,5.51-1.74,6.64-.58,12-2.01,4.29-1.14,7.7-2.05,10-5.01,3.24-4.18,3.47-11.46-.01-15-4.46-4.53-13.58-1.47-18,.02-13.87,4.66-15.6,13.51-24.99,13.02Z"/>
    <path class="cls-2" d="M1268.22,347.53c14.97-3.97,16.77-5.98,21-5.02,7.44,1.69,11.78,10.19,12.01,9.99.27-.23-9-8.78-7.01-12.99,1.94-4.11,14-2.82,14-3.01,0-.19-10.87,1.68-14-2.99-1.59-2.37-.88-5.95,0-8,1.65-3.87,5.28-5.53,4.99-6-.48-.81-9.94,5.92-14,3.01-2.03-1.46-.75-3.93-3.01-6-3.17-2.9-9.49-1.48-13,.01-4.66,1.97-5.24,4.44-9,5.01-4.24.64-6.26-3.04-8-1.99-1.65.99-.77,4.52,1.01,15,1.76,10.4,1.86,12.62,4.01,14,1.69,1.08,3.58.96,11-1.01Z"/>
    <path class="cls-2" d="M1349.25,385.46c1.25-1.09-1.58-9.22-7.01-9.99-1.24-.18-3.58-.1-4,1-1.02,2.67,9.43,10.37,11.01,8.99Z"/>
    <path class="cls-2" d="M1316.27,406.49c.57-.69.19-2.51-1-3-1.43-.59-3.14,1.09-3,2,.17,1.1,3.2,1.98,4,1Z"/>
    <path class="cls-2" d="M1322.24,379.48c1.37-2.1-.21-5.56-2.01-6-2.41-.59-5.98,4.02-4.99,6,.84,1.68,5.42,2.42,7,0Z"/>
    <path class="cls-2" d="M1307.24,374.49c1.22-.7,1.02-2.78,1-3-.13-1.18-.85-2.83-2-3-1.48-.21-3.55,2.05-3,4,.47,1.65,2.73,2.72,4,2Z"/>
    <path class="cls-2" d="M1315.22,354.49c.2-.78.39-1.54,0-2-.71-.83-3.25-.49-4,1-.82,1.64.85,4.04,2,4,1.22-.04,1.94-2.79,2-3Z"/>
    <path class="cls-2" d="M1338.24,370.47c3.05.14,8.66-26.06,5.98-27.01-1.9-.67-10.1,10.62-7.98,22.01.29,1.57.92,4.95,2,5Z"/>
    <path class="cls-2" d="M1244.27,413.55c.78-.83.4-3.07-1-4-2.01-1.33-5.02.79-5,2,.03,1.5,4.75,3.32,6,1.99Z"/>
    <path class="cls-2" d="M1273.3,445.52c1.35-.43,4.1-1.67,4-3-.13-1.64-4.63-3.81-7-1.99-1.53,1.17-2.08,3.92-1,5,.96.96,2.92.34,4,0Z"/>
    <path class="cls-2" d="M1218.27,414.57c.87-.39.6-4.52-1-5-.72-.22-1.69.3-2,1-.72,1.64,2.16,4.38,3,4Z"/>
    <path class="cls-2" d="M1190.27,407.59c1.05-.81,2.02-.75,2-1-.03-.4-2.62-1.37-4,0-1.37,1.36-.47,3.95,0,4,.4.04.42-1.79,2-3Z"/>
    <path class="cls-2" d="M1207.26,401.58c2.05-.08,3.37-2.26,3-3-.57-1.14-5.77-.33-6,1.01-.14.79,1.38,2.06,3,2Z"/>
    <path class="cls-2" d="M1396.22,357.42c.51-1.17-2.48-4.86-5-4-1.25.43-2.34,1.96-2,3,.65,1.97,6.43,2.32,7,.99Z"/>
    <path class="cls-2" d="M1409.22,349.41c-.07-.37-.87-.23-3-1-2.02-.72-2.48-1.27-3-1-.92.48-1.1,3.03,0,4,1.72,1.51,6.16-1.11,6-2.01Z"/>
  </g>
  <text class="cls-4" transform="translate(516.51 276.56)"><tspan x="0" y="0">P</tspan><tspan class="cls-6" x="62.59" y="0">R</tspan><tspan class="cls-1" x="126.17" y="0">O</tspan><tspan x="203.17" y="0">JE</tspan><tspan class="cls-5" x="295.46" y="0">K</tspan><tspan x="366.96" y="0">TER</tspan></text>
</svg>