<?xml version="1.0" encoding="UTF-8"?>
<svg id="krop" xmlns="http://www.w3.org/2000/svg" viewBox="0 0 173.75 206.81">
  <defs>
    <style>
      .cls-1 {
        fill: #009bff;
      }

      .cls-1, .cls-2, .cls-3 {
        stroke-width: 0px;
      }

      .cls-2 {
        fill: #ccebff;
      }

      .cls-3 {
        fill: #0074bf;
      }
    </style>
  </defs>
  <path class="cls-1" d="M87.08,17.72l51.48,100.74.02.04c2.55,4.65,4.17,9.71,4.65,15.02,2.48,27.48-26.16,50.68-60.65,49.13"/>
  <path class="cls-1" d="M82.57,182.64c-30.22-1.36-54.2-21.34-54.2-45.78,0-8.05,2.6-15.62,7.18-22.2h0S87.08,17.72,87.08,17.72"/>
  <path class="cls-2" d="M71.78,79.22c.3-.54-.58-.98-.97-.49-7.62,9.47-18.35,24.26-23.81,38.99-.37,1-2.25,6.17-3.08,13.18-.99,8.45-2.5,21.36,4.83,23.72,5.99,1.93,17.64-3.26,21.73-10.17,4.41-7.45-1.12-14.97-3.84-20.33-4.73-9.32-6.72-23.49,5.15-44.91Z"/>
  <path class="cls-3" d="M129.46,124.43c0-.07.11-.11.14-.05,2.97,5.26,8.07,16.48,4.07,28.89-.89,2.76-4.84,15.02-14.33,16.69-3.22.57-7.69.03-9.41-2.32-2.65-3.61,2.7-9.47,3.08-9.88,3.1-3.33,6.68-4.26,8.75-5.29,4.59-2.29,9.15-8.79,7.7-28.03Z"/>
</svg>